<?xml version="1.0" encoding="utf-8"?>
<!-- Generator: Adobe Illustrator 25.0.1, SVG Export Plug-In . SVG Version: 6.00 Build 0)  -->
<svg version="1.0" xmlns="http://www.w3.org/2000/svg" xmlns:xlink="http://www.w3.org/1999/xlink" x="0px" y="0px"
	 viewBox="0 0 500 500" style="enable-background:new 0 0 500 500;" xml:space="preserve">
<style type="text/css">
	.st0{fill:#E0E0E0;}
	.st1{fill:#EBEBEB;}
	.st2{fill:#FFFFFF;}
	.st3{fill:#F5F5F5;}
	.st4{fill:#00E97B;}
	.st5{fill:#263238;}
	.st6{opacity:0.3;}
	.st7{fill:#FFBE9D;}
	.st8{fill:#EB996E;}
	.st9{fill:#455A64;}
	.st10{fill:#FAFAFA;}
	.st11{fill:#E9006E;}
</style>
<g id="Background_Complete">
	<g>
		<g>
			<g>
				<g>
					<g>
						
							<rect x="382.19" y="162.83" transform="matrix(0.4742 -0.8804 0.8804 0.4742 59.7915 433.9964)" class="st0" width="22.11" height="8.23"/>
					</g>
				</g>
			</g>
			<g>
				<g>
					<g>
						
							<rect x="384.15" y="163.88" transform="matrix(0.4742 -0.8804 0.8804 0.4742 59.8935 436.2746)" class="st1" width="22.11" height="8.23"/>
					</g>
				</g>
			</g>
			<g>
				<g>
					<g>
						<path class="st2" d="M396.46,162.19c-0.49,0.9-0.15,2.03,0.75,2.51s2.03,0.15,2.51-0.75c0.49-0.9,0.15-2.03-0.75-2.51
							C398.07,160.95,396.95,161.29,396.46,162.19z"/>
					</g>
				</g>
			</g>
			<g>
				<g>
					<g>
						<g>
							<path class="st1" d="M393.3,158.19c0.09-0.01,0.26,0.85,0.38,1.91c0.12,1.07,0.15,1.94,0.05,1.95
								c-0.09,0.01-0.26-0.84-0.38-1.91C393.23,159.07,393.21,158.2,393.3,158.19z"/>
						</g>
					</g>
				</g>
			</g>
			<g>
				<g>
					<g>
						<g>
							<path class="st1" d="M392.14,160.34c0.09-0.01,0.26,0.84,0.38,1.91c0.12,1.07,0.15,1.94,0.05,1.95
								c-0.09,0.01-0.26-0.84-0.38-1.91C392.07,161.23,392.05,160.35,392.14,160.34z"/>
						</g>
					</g>
				</g>
			</g>
			<g>
				<g>
					<g>
						<g>
							<path class="st1" d="M390.98,162.5c0.09-0.01,0.26,0.84,0.38,1.91c0.12,1.07,0.15,1.94,0.05,1.95
								c-0.09,0.01-0.26-0.84-0.38-1.91C390.91,163.38,390.89,162.51,390.98,162.5z"/>
						</g>
					</g>
				</g>
			</g>
			<g>
				<g>
					<g>
						<g>
							<path class="st1" d="M389.82,164.65c0.09-0.01,0.26,0.84,0.38,1.91c0.12,1.07,0.15,1.94,0.05,1.95s-0.26-0.84-0.38-1.91
								C389.75,165.53,389.73,164.66,389.82,164.65z"/>
						</g>
					</g>
				</g>
			</g>
			<g>
				<g>
					<g>
						<g>
							<path class="st1" d="M388.66,166.81c0.09-0.01,0.26,0.84,0.38,1.91c0.12,1.07,0.15,1.94,0.05,1.95
								c-0.09,0.01-0.26-0.84-0.38-1.91C388.6,167.69,388.57,166.82,388.66,166.81z"/>
						</g>
					</g>
				</g>
			</g>
			<g>
				<g>
					<g>
						<g>
							<path class="st1" d="M387.5,168.96c0.09-0.01,0.26,0.84,0.38,1.91c0.12,1.07,0.15,1.94,0.05,1.95
								c-0.09,0.01-0.26-0.84-0.38-1.91C387.44,169.84,387.41,168.97,387.5,168.96z"/>
						</g>
					</g>
				</g>
			</g>
			<g>
				<g>
					<g>
						<g>
							<path class="st1" d="M386.34,171.11c0.09-0.01,0.26,0.84,0.38,1.91c0.12,1.07,0.15,1.94,0.05,1.95
								c-0.09,0.01-0.26-0.84-0.38-1.91C386.28,171.99,386.25,171.12,386.34,171.11z"/>
						</g>
					</g>
				</g>
			</g>
			<g>
				<g>
					<g>
						<g>
							<path class="st1" d="M394.34,156.3c0.09-0.01,0.26,0.84,0.38,1.91c0.12,1.07,0.15,1.94,0.05,1.95
								c-0.09,0.01-0.26-0.84-0.38-1.91C394.28,157.18,394.25,156.31,394.34,156.3z"/>
						</g>
					</g>
				</g>
			</g>
			<g>
				<g>
					<g>
						<g>
							<path class="st1" d="M395.64,155.67c0.09-0.01,0.22,0.49,0.29,1.12c0.07,0.63,0.06,1.15-0.04,1.16
								c-0.09,0.01-0.22-0.49-0.29-1.12C395.53,156.2,395.55,155.68,395.64,155.67z"/>
						</g>
					</g>
				</g>
			</g>
		</g>
		<g>
			<g>
				<g>
					<g>
						<path class="st0" d="M381.55,171.22l8.87-17.41c0,0-3.43-2.81-4.04-9.85c-0.4-4.66,2.4-7.86,2.78-9.61
							c0.23-1.07-2.05-2.06-3.06-2.46c-0.96-0.38-2.73-0.68-4.13,0.41c-2.59,2.03-4.38,9.26-4.38,9.26s0.01,1.68-1.8,0.7l-6.46-3.48
							c-0.84-0.45-1.81-0.62-2.74-0.42c-0.82,0.18-1.68,0.65-2.17,1.77c-1.13,2.56-0.43,4.36-0.71,4.88
							c-0.28,0.52-1.48,1.04-1.76,2.81c-0.28,1.77,0.11,1.81-0.27,2.52c-0.38,0.71-1.23,2.59-1.37,3.93
							c-0.14,1.34,0.1,2.14,0.1,2.14s-1.55,2.22-1.53,3.93c0.02,2.24,3.67,5.68,5.86,5.83c1.03,0.07,5.36,1.22,7.42,1.74
							C374.2,168.44,380.25,169.44,381.55,171.22z"/>
					</g>
				</g>
			</g>
			<g>
				<g>
					<g>
						<path class="st1" d="M383.75,172.66l9.37-17.4c0,0-3.43-2.81-4.04-9.85c-0.4-4.66,0.08-7.99,0.46-9.74
							c0.23-1.07-0.32-2.17-1.33-2.57c-0.96-0.38-2.24-0.61-3.64,0.48c-2.59,2.03-4.29,9.43-4.29,9.43s0.01,1.68-1.8,0.7l-6.46-3.48
							c-0.84-0.45-1.81-0.62-2.74-0.42c-0.82,0.18-1.68,0.65-2.18,1.77c-1.13,2.56-0.43,4.36-0.71,4.88
							c-0.28,0.52-1.48,1.04-1.76,2.81c-0.28,1.77,0.11,1.81-0.27,2.52c-0.38,0.71-1.23,2.59-1.37,3.93
							c-0.14,1.34,0.1,2.14,0.1,2.14s-1.45,2.22-1.53,3.93s2.25,3.88,3.15,4.37c0.91,0.49,8.07,2.68,10.12,3.2
							S382.46,170.88,383.75,172.66z"/>
					</g>
				</g>
			</g>
			<g>
				<g>
					<g>
						<g>
							<path class="st1" d="M378.85,137.76c0.09-0.02,0.42,1.07,0.82,2.42c0.4,1.35,0.73,2.44,0.65,2.47
								c-0.08,0.03-0.56-1.02-0.96-2.38C378.95,138.92,378.76,137.78,378.85,137.76z"/>
						</g>
					</g>
				</g>
			</g>
			<g>
				<g>
					<g>
						<g>
							<path class="st1" d="M379.75,135.25c0.09-0.02,0.39,0.97,0.85,2.16c0.47,1.19,0.77,2.2,0.68,2.23
								c-0.08,0.03-0.52-0.91-0.99-2.11C379.83,136.31,379.66,135.26,379.75,135.25z"/>
						</g>
					</g>
				</g>
			</g>
			<g>
				<g>
					<g>
						<g>
							<path class="st1" d="M381.06,133.24c0.1-0.02,0.32,0.79,0.77,1.72c0.46,0.94,0.69,1.78,0.6,1.81
								c-0.09,0.03-0.44-0.73-0.9-1.67C381.06,134.13,380.98,133.26,381.06,133.24z"/>
						</g>
					</g>
				</g>
			</g>
			<g>
				<g>
					<g>
						<g>
							<path class="st1" d="M382.71,131.88c0.09-0.03,0.38,0.52,0.66,1.24c0.28,0.72,0.43,1.32,0.35,1.36
								c-0.09,0.03-0.38-0.52-0.66-1.24C382.78,132.52,382.63,131.91,382.71,131.88z"/>
						</g>
					</g>
				</g>
			</g>
			<g>
				<g>
					<g>
						<g>
							<path class="st1" d="M384.58,131.55c0.08-0.05,0.32,0.24,0.53,0.64c0.22,0.4,0.32,0.76,0.24,0.8
								c-0.08,0.04-0.32-0.25-0.53-0.64C384.61,131.96,384.5,131.6,384.58,131.55z"/>
						</g>
					</g>
				</g>
			</g>
			<g>
				<g>
					<g>
						<g>
							<path class="st1" d="M377.7,141.1c0.09-0.03,0.39,0.55,0.68,1.31c0.29,0.76,0.46,1.4,0.37,1.43
								c-0.09,0.03-0.39-0.55-0.68-1.31C377.78,141.77,377.62,141.13,377.7,141.1z"/>
						</g>
					</g>
				</g>
			</g>
			<g>
				<g>
					<g>
						<g>
							<path class="st1" d="M363.92,141.5c0.08-0.04,0.71,1.01,1.4,2.34c0.69,1.34,1.18,2.45,1.1,2.5c-0.08,0.04-0.71-1.01-1.4-2.34
								C364.33,142.66,363.84,141.54,363.92,141.5z"/>
						</g>
					</g>
				</g>
			</g>
			<g>
				<g>
					<g>
						<g>
							<path class="st1" d="M365.61,138.61c0.08-0.04,0.48,0.57,0.89,1.37c0.41,0.8,0.68,1.48,0.59,1.52
								c-0.08,0.04-0.48-0.57-0.89-1.37C365.8,139.33,365.53,138.65,365.61,138.61z"/>
						</g>
					</g>
				</g>
			</g>
			<g>
				<g>
					<g>
						<g>
							<path class="st1" d="M362.64,146.26c0.07-0.05,0.63,0.67,1.15,1.67c0.52,0.99,0.78,1.87,0.7,1.9
								c-0.09,0.03-0.48-0.77-0.99-1.75C362.99,147.1,362.56,146.31,362.64,146.26z"/>
						</g>
					</g>
				</g>
			</g>
			<g>
				<g>
					<g>
						<g>
							<path class="st1" d="M361.77,150.11c0.08-0.04,0.52,0.74,0.99,1.74c0.46,1,0.77,1.84,0.69,1.88
								c-0.08,0.04-0.52-0.74-0.99-1.74C362,150.99,361.69,150.15,361.77,150.11z"/>
						</g>
					</g>
				</g>
			</g>
			<g>
				<g>
					<g>
						<g>
							<path class="st1" d="M360.39,154.49c0.09-0.03,0.52,0.91,1.08,2.05c0.56,1.15,1.04,2.06,0.95,2.11
								c-0.08,0.05-0.69-0.81-1.25-1.97C360.61,155.52,360.31,154.52,360.39,154.49z"/>
						</g>
					</g>
				</g>
			</g>
			<g>
				<g>
					<g>
						<g>
							<path class="st1" d="M359.43,158.27c0.08-0.03,0.59,1.06,1.25,2.4c0.65,1.34,1.2,2.41,1.12,2.46
								c-0.08,0.05-0.77-0.96-1.42-2.31C359.71,159.47,359.34,158.3,359.43,158.27z"/>
						</g>
					</g>
				</g>
			</g>
		</g>
	</g>
	<g>
		<g>
			<g>
				<g>
					<g>
						
							<rect x="123.54" y="48.03" transform="matrix(0.9234 -0.3839 0.3839 0.9234 -14.3639 54.44)" class="st0" width="11.28" height="30.33"/>
					</g>
				</g>
			</g>
			<g>
				<g>
					<g>
						
							<rect x="120.72" y="49.21" transform="matrix(0.9234 -0.3839 0.3839 0.9234 -15.0291 53.4489)" class="st1" width="11.28" height="30.33"/>
					</g>
				</g>
			</g>
			<g>
				<g>
					<g>
						<path class="st2" d="M131.45,70.73c-0.54-1.3-2.03-1.91-3.33-1.37c-1.3,0.54-1.91,2.03-1.37,3.33
							c0.54,1.3,2.03,1.91,3.33,1.37C131.37,73.51,131.99,72.02,131.45,70.73z"/>
					</g>
				</g>
			</g>
			<g>
				<g>
					<g>
						<g>
							<path class="st1" d="M138.44,70.83c-0.07,0.11-1.13-0.45-2.36-1.24c-1.24-0.79-2.19-1.52-2.12-1.63
								c0.07-0.11,1.13,0.45,2.36,1.24C137.56,69.99,138.51,70.72,138.44,70.83z"/>
						</g>
					</g>
				</g>
			</g>
			<g>
				<g>
					<g>
						<g>
							<path class="st1" d="M137.15,67.73c-0.07,0.11-1.13-0.45-2.36-1.24c-1.24-0.79-2.19-1.52-2.12-1.63
								c0.07-0.11,1.13,0.45,2.36,1.24C136.27,66.9,137.22,67.63,137.15,67.73z"/>
						</g>
					</g>
				</g>
			</g>
			<g>
				<g>
					<g>
						<g>
							<path class="st1" d="M135.87,64.63c-0.07,0.11-1.13-0.45-2.36-1.24c-1.24-0.79-2.19-1.52-2.12-1.63
								c0.07-0.11,1.13,0.45,2.37,1.24C134.98,63.8,135.93,64.53,135.87,64.63z"/>
						</g>
					</g>
				</g>
			</g>
			<g>
				<g>
					<g>
						<g>
							<path class="st1" d="M134.58,61.53c-0.07,0.11-1.13-0.45-2.36-1.24c-1.24-0.79-2.19-1.52-2.12-1.63
								c0.07-0.11,1.13,0.45,2.37,1.24C133.7,60.7,134.65,61.43,134.58,61.53z"/>
						</g>
					</g>
				</g>
			</g>
			<g>
				<g>
					<g>
						<g>
							<path class="st1" d="M133.29,58.44c-0.07,0.11-1.13-0.45-2.36-1.24c-1.24-0.79-2.19-1.52-2.12-1.63s1.13,0.45,2.36,1.24
								C132.41,57.6,133.36,58.33,133.29,58.44z"/>
						</g>
					</g>
				</g>
			</g>
			<g>
				<g>
					<g>
						<g>
							<path class="st1" d="M132,55.34c-0.07,0.11-1.13-0.45-2.36-1.24c-1.24-0.79-2.19-1.52-2.12-1.63
								c0.07-0.11,1.13,0.45,2.36,1.24C131.12,54.5,132.07,55.23,132,55.34z"/>
						</g>
					</g>
				</g>
			</g>
			<g>
				<g>
					<g>
						<g>
							<path class="st1" d="M130.71,52.24c-0.07,0.11-1.13-0.45-2.36-1.24c-1.24-0.79-2.19-1.52-2.12-1.63
								c0.07-0.11,1.13,0.45,2.36,1.24C129.83,51.41,130.78,52.13,130.71,52.24z"/>
						</g>
					</g>
				</g>
			</g>
			<g>
				<g>
					<g>
						<g>
							<path class="st1" d="M139.55,73.57c-0.07,0.11-1.13-0.45-2.36-1.24c-1.24-0.79-2.19-1.52-2.12-1.63
								c0.07-0.11,1.13,0.45,2.36,1.24C138.67,72.74,139.62,73.47,139.55,73.57z"/>
						</g>
					</g>
				</g>
			</g>
			<g>
				<g>
					<g>
						<g>
							<path class="st1" d="M139.1,75.5c-0.07,0.11-0.72-0.19-1.45-0.66c-0.73-0.47-1.27-0.94-1.2-1.04
								c0.07-0.11,0.72,0.19,1.45,0.66C138.63,74.92,139.17,75.39,139.1,75.5z"/>
						</g>
					</g>
				</g>
			</g>
		</g>
		<g>
			<g>
				<g>
					<g>
						<path class="st0" d="M134.74,47.04l10.85,24.51c0,0,5.96-1.22,13.98,4.23c5.31,3.61,6.3,9.35,7.82,11.27
							c0.93,1.17,3.96-0.4,5.27-1.13c1.24-0.69,3.09-2.31,3.14-4.75c0.09-4.52-6.06-12.68-6.06-12.68s-1.8-1.44,0.81-2.52l9.29-3.86
							c1.2-0.5,2.23-1.39,2.81-2.56c0.52-1.02,0.76-2.35-0.01-3.85c-1.75-3.42-4.27-4.23-4.58-4.97c-0.31-0.74,0.17-2.47-1.46-4.3
							c-1.63-1.83-2.02-1.45-2.45-2.47c-0.43-1.02-1.69-3.55-3-4.86c-1.31-1.31-2.36-1.75-2.36-1.75s-1.03-3.57-2.86-5.03
							c-2.4-1.92-9.22-1.02-11.27,1.19c-0.96,1.04-5.94,4.65-8.27,6.39C144.07,41.63,137.76,47.2,134.74,47.04z"/>
					</g>
				</g>
			</g>
			<g>
				<g>
					<g>
						<path class="st1" d="M131.3,48.14l10.41,25.03c0,0,5.96-1.22,13.98,4.23c5.31,3.61,8.44,7,9.97,8.92
							c0.93,1.17,2.58,1.54,3.89,0.81c1.24-0.69,2.59-1.86,2.64-4.29c0.09-4.52-6.32-12.72-6.32-12.72s-1.8-1.44,0.81-2.52
							l9.29-3.86c1.2-0.5,2.23-1.39,2.81-2.56c0.52-1.02,0.76-2.35-0.01-3.85c-1.75-3.42-4.27-4.23-4.58-4.97
							c-0.31-0.74,0.17-2.47-1.46-4.3c-1.63-1.83-2.02-1.45-2.45-2.47c-0.43-1.02-1.69-3.55-3-4.86c-1.31-1.31-2.36-1.75-2.36-1.75
							s-1.11-3.47-2.86-5.03c-1.74-1.57-6.08-0.97-7.38-0.42s-9.83,6.27-12.17,8.01C140.18,43.25,134.32,48.31,131.3,48.14z"/>
					</g>
				</g>
			</g>
			<g>
				<g>
					<g>
						<g>
							<path class="st1" d="M172.7,73.13c-0.06,0.12-1.51-0.48-3.29-1.22c-1.78-0.74-3.23-1.33-3.19-1.45
								c0.04-0.12,1.57,0.29,3.36,1.03C171.38,72.23,172.75,73.02,172.7,73.13z"/>
						</g>
					</g>
				</g>
			</g>
			<g>
				<g>
					<g>
						<g>
							<path class="st1" d="M174.59,76.27c-0.06,0.11-1.37-0.42-3.03-0.96c-1.67-0.53-3.01-1.08-2.96-1.2
								c0.04-0.11,1.42,0.23,3.1,0.77C173.39,75.42,174.65,76.16,174.59,76.27z"/>
						</g>
					</g>
				</g>
			</g>
			<g>
				<g>
					<g>
						<g>
							<path class="st1" d="M175.59,79.39c-0.06,0.12-1.12-0.34-2.49-0.67c-1.4-0.32-2.49-0.81-2.44-0.93
								c0.05-0.11,1.15,0.17,2.55,0.48C174.64,78.63,175.65,79.29,175.59,79.39z"/>
						</g>
					</g>
				</g>
			</g>
			<g>
				<g>
					<g>
						<g>
							<path class="st1" d="M175.61,82.33c-0.04,0.12-0.88-0.05-1.88-0.37c-1-0.32-1.78-0.68-1.74-0.8
								c0.04-0.12,0.88,0.05,1.88,0.37C174.87,81.85,175.65,82.21,175.61,82.33z"/>
						</g>
					</g>
				</g>
			</g>
			<g>
				<g>
					<g>
						<g>
							<path class="st1" d="M174.34,84.6c-0.02,0.12-0.53,0.13-1.15,0.01c-0.61-0.12-1.09-0.31-1.06-0.43
								c0.03-0.12,0.54-0.13,1.15-0.01C173.89,84.28,174.36,84.48,174.34,84.6z"/>
						</g>
					</g>
				</g>
			</g>
			<g>
				<g>
					<g>
						<g>
							<path class="st1" d="M170.14,69.02c-0.04,0.12-0.93-0.06-1.99-0.41c-1.06-0.34-1.89-0.72-1.85-0.84
								c0.04-0.12,0.93,0.06,1.99,0.41C169.35,68.52,170.18,68.9,170.14,69.02z"/>
						</g>
					</g>
				</g>
			</g>
			<g>
				<g>
					<g>
						<g>
							<path class="st1" d="M181.63,54c-0.03,0.12-1.68-0.12-3.7-0.54c-2.02-0.42-3.64-0.87-3.61-0.99c0.03-0.12,1.68,0.12,3.7,0.54
								C180.04,53.44,181.66,53.88,181.63,54z"/>
						</g>
					</g>
				</g>
			</g>
			<g>
				<g>
					<g>
						<g>
							<path class="st1" d="M183.25,58.31c-0.03,0.12-1.02,0.02-2.23-0.24c-1.2-0.25-2.16-0.56-2.13-0.68
								c0.03-0.12,1.02-0.02,2.23,0.24C182.32,57.88,183.27,58.18,183.25,58.31z"/>
						</g>
					</g>
				</g>
			</g>
			<g>
				<g>
					<g>
						<g>
							<path class="st1" d="M177.68,48.52c-0.01,0.12-1.26,0.09-2.77-0.22c-1.51-0.31-2.66-0.78-2.63-0.9
								c0.04-0.12,1.24,0.15,2.72,0.46C176.49,48.17,177.7,48.39,177.68,48.52z"/>
						</g>
					</g>
				</g>
			</g>
			<g>
				<g>
					<g>
						<g>
							<path class="st1" d="M174.32,44.26c-0.03,0.12-1.24-0.08-2.7-0.45c-1.46-0.37-2.62-0.77-2.59-0.9
								c0.03-0.12,1.24,0.08,2.7,0.45C173.19,43.74,174.35,44.14,174.32,44.26z"/>
						</g>
					</g>
				</g>
			</g>
			<g>
				<g>
					<g>
						<g>
							<path class="st1" d="M170.87,39.01c-0.04,0.12-1.42-0.23-3.12-0.63c-1.7-0.4-3.09-0.68-3.08-0.81
								c0.02-0.12,1.45-0.03,3.18,0.37C169.58,38.34,170.91,38.9,170.87,39.01z"/>
						</g>
					</g>
				</g>
			</g>
			<g>
				<g>
					<g>
						<g>
							<path class="st1" d="M167.68,34.71c-0.04,0.12-1.64-0.29-3.63-0.75c-1.99-0.47-3.61-0.81-3.59-0.93
								c0.02-0.13,1.69,0.02,3.69,0.49C166.15,33.98,167.72,34.59,167.68,34.71z"/>
						</g>
					</g>
				</g>
			</g>
		</g>
	</g>
	<g>
		<g>
			<g>
				<g>
					<g>
						<path class="st1" d="M79.47,345.27c-6.12-3.16-13.34-3.57-20.13-2.45c-3.65,0.6-7.46,1.7-9.95,4.44
							c-2.49,2.74-2.96,7.57-0.1,9.93c1.7,1.4,4.07,1.62,6.27,1.59c5.32-0.06,11.23-1,15.48,2.2c2.43,1.83,4.04,4.86,6.94,5.76
							c2.84,0.88,6.04-0.8,7.54-3.36c1.5-2.56,1.55-5.76,0.85-8.65C86.38,354.74,85.64,348.45,79.47,345.27z"/>
					</g>
				</g>
			</g>
			<g>
				<g>
					<g>
						<path class="st1" d="M93.5,318.18c-3.75,5.35-11.02,3.58-14.4,0.31c-3.37-3.26-4.8-8-6.1-12.51
							c-2.97-10.31-5.96-21.13-3.75-31.62c0.66-3.14,1.83-6.27,4.04-8.6c2.21-2.33,5.6-3.71,8.7-2.89c3.67,0.97,5.95,4.56,7.6,7.98
							c4.85,10.05,7.41,21.19,7.45,32.35C97.05,308.42,96.44,313.88,93.5,318.18"/>
					</g>
				</g>
			</g>
			<g>
				<g>
					<g>
						<path class="st1" d="M103.78,325.86c-4.07-4.83-4.84-11.86-3.03-17.91c1.81-6.05,5.9-11.19,10.61-15.39
							c5.52-4.92,12.02-8.75,19-11.21c2.75-0.97,5.64-1.73,8.54-1.45c2.9,0.28,5.82,1.76,7.17,4.34c2,3.81,0.08,8.44-1.99,12.21
							c-3.65,6.65-7.83,13.01-12.48,19c-3.74,4.82-8.02,9.58-13.72,11.76c-5.7,2.18-11.62,1.92-14.64-2.03"/>
					</g>
				</g>
			</g>
			<g>
				<g>
					<g>
						<g>
							<path class="st0" d="M93.75,398.87c-0.07,0-0.18-0.86-0.34-2.43c-0.17-1.77-0.39-3.99-0.65-6.63
								c-0.31-2.79-0.72-6.11-1.49-9.73c-0.77-3.61-1.98-7.52-3.54-11.48c-1.61-3.94-3.57-7.52-5.86-10.39
								c-2.28-2.88-4.92-4.96-7.41-6.16c-2.48-1.23-4.71-1.72-6.24-1.94c-1.55-0.16-2.42-0.28-2.42-0.35c0-0.07,0.87-0.08,2.46-0.04
								c1.58,0.11,3.9,0.5,6.51,1.69c2.62,1.16,5.43,3.28,7.82,6.22c2.41,2.93,4.44,6.59,6.08,10.6c1.58,4.03,2.77,7.98,3.51,11.67
								c0.74,3.68,1.07,7.04,1.29,9.85c0.21,2.82,0.29,5.1,0.33,6.67C93.84,397.99,93.82,398.86,93.75,398.87z"/>
						</g>
					</g>
				</g>
			</g>
			<g>
				<g>
					<g>
						<g>
							<path class="st0" d="M93.3,393.76c-0.03,0-0.06-0.39-0.07-1.13c0-0.85,0.01-1.91,0.01-3.23c0.01-2.8,0.01-6.85-0.14-11.85
								c-0.25-10-1.11-20.77-2.77-35.94c-1.58-14.27-3.69-30.88-5.92-41.68c-0.48-2.46-0.96-4.67-1.41-6.6
								c-0.43-1.94-0.8-3.61-1.16-4.96c-0.31-1.27-0.56-2.31-0.75-3.13c-0.16-0.72-0.23-1.1-0.2-1.11c0.03-0.01,0.17,0.35,0.39,1.06
								c0.25,0.81,0.56,1.83,0.94,3.09c0.42,1.34,0.84,3,1.33,4.93c0.51,1.93,1.04,4.13,1.56,6.58c2.21,9.78,4.55,23.46,6.22,38.67
								c1.67,15.21,2.42,29.06,2.48,39.08c0.06,5.01-0.05,9.07-0.18,11.87c-0.08,1.31-0.15,2.38-0.2,3.22
								C93.38,393.38,93.33,393.76,93.3,393.76z"/>
						</g>
					</g>
				</g>
			</g>
			<g>
				<g>
					<g>
						<g>
							<path class="st0" d="M93.23,367.05c-0.07,0-0.06-1.2,0.02-3.37c0.12-2.16,0.42-5.29,1.03-9.13c0.65-3.82,1.55-8.36,2.97-13.3
								c0.61-2.26,2.06-7.66,5.56-15.73c4.61-10.94,10.88-19.89,16.33-25.43c1.28-1.47,2.7-2.53,3.84-3.57
								c0.59-0.5,1.11-1,1.64-1.39c0.53-0.37,1.03-0.71,1.49-1.03c1.79-1.23,2.8-1.87,2.84-1.82c0.16,0.22-4.02,2.68-9.3,8.29
								c-5.26,5.6-11.35,14.49-15.92,25.34c-2.55,5.88-4.33,11.13-5.59,15.59c-1.46,4.89-2.43,9.38-3.16,13.17
								c-0.7,3.79-1.1,6.89-1.34,9.04C93.44,365.87,93.3,367.06,93.23,367.05z"/>
						</g>
					</g>
				</g>
			</g>
		</g>
		<g>
			<g>
				<g>
					<polygon class="st0" points="119.05,414.17 116.37,450.83 69.27,450.83 66.59,414.17 					"/>
				</g>
			</g>
		</g>
		<g>
			<g>
				<g>
					<rect x="60.97" y="399.72" class="st0" width="62.62" height="14.45"/>
				</g>
			</g>
		</g>
		<g>
			<g>
				<g>
					<polygon class="st1" points="123.6,449.43 123.6,453.44 120.65,453.44 62.01,453.44 62.01,449.43 					"/>
				</g>
			</g>
		</g>
		<g>
			<g>
				<g>
					<polygon class="st0" points="117.77,460.49 120.65,453.44 64.25,453.44 67.61,460.49 					"/>
				</g>
			</g>
		</g>
		<g>
			<g>
				<g>
					<g>
						<path class="st3" d="M67.47,426.15c-0.01,0.01,0.06,0.12,0.22,0.34c0.19,0.25,0.42,0.56,0.7,0.93
							c0.67,0.86,1.59,2.03,2.74,3.51l0.12,0.16l0.12-0.16c1.72-2.39,4.03-5.57,6.74-9.32h-0.39c2.01,2.84,4.24,6,6.64,9.4
							l0.21,0.29l0.23-0.28c2.45-2.91,5.11-6.08,7.87-9.37l-0.45-0.01c0.14,0.17,0.28,0.36,0.43,0.54c2.44,3.06,4.8,6.02,7.04,8.82
							l0.23,0.29l0.22-0.31c2.39-3.38,4.62-6.54,6.64-9.4l-0.39,0.02c3.27,3.73,6.05,6.89,8.18,9.32l0.15,0.17l0.11-0.19
							c1.08-1.81,1.94-3.26,2.56-4.3c0.27-0.47,0.48-0.84,0.66-1.15c0.14-0.26,0.21-0.4,0.2-0.41c-0.01-0.01-0.11,0.12-0.27,0.36
							c-0.19,0.29-0.43,0.65-0.73,1.1c-0.65,1.03-1.56,2.45-2.69,4.22l0.26-0.02c-2.1-2.46-4.83-5.66-8.05-9.43l-0.2-0.24
							l-0.18,0.26c-2.04,2.84-4.29,5.99-6.7,9.35l0.45-0.01c-2.23-2.81-4.59-5.77-7.02-8.84c-0.15-0.19-0.3-0.37-0.43-0.54
							L92.46,421l-0.23,0.28c-2.75,3.29-5.41,6.46-7.85,9.38l0.44,0.02c-2.42-3.38-4.68-6.53-6.7-9.35l-0.2-0.27l-0.19,0.27
							c-2.66,3.79-4.91,7.01-6.6,9.42l0.24-0.01c-1.2-1.44-2.16-2.59-2.85-3.42c-0.31-0.36-0.56-0.65-0.76-0.88
							C67.57,426.24,67.48,426.14,67.47,426.15z"/>
					</g>
				</g>
			</g>
		</g>
		<g>
			<g>
				<g>
					<g>
						<path class="st3" d="M65.94,413.93c0,0.16,11.8,0.29,26.36,0.29c14.56,0,26.36-0.13,26.36-0.29c0-0.16-11.8-0.29-26.36-0.29
							C77.74,413.63,65.94,413.76,65.94,413.93z"/>
					</g>
				</g>
			</g>
		</g>
		<g>
			<g>
				<g>
					<g>
						<path class="st3" d="M63.56,453.83c0,0.16,12.83,0.29,28.65,0.29c15.82,0,28.65-0.13,28.65-0.29c0-0.16-12.82-0.29-28.65-0.29
							C76.38,453.54,63.56,453.67,63.56,453.83z"/>
					</g>
				</g>
			</g>
		</g>
	</g>
	<g>
		<g>
			<g>
				<g>
					<g>
						<circle class="st1" cx="342.46" cy="242.46" r="31.91"/>
					</g>
				</g>
			</g>
			<g>
				<g>
					<g>
						<path class="st0" d="M371.89,237.01c0.54-0.03,1.14,0.81,1.58,2.46c0.45,1.64,0.64,4.11,0.25,7.13
							c-0.38,3.02-1.44,6.58-3.44,10.16c-1.99,3.57-4.99,7.14-8.93,9.94c-3.97,2.76-8.33,4.39-12.37,5.06
							c-4.05,0.68-7.75,0.48-10.73-0.18c-2.98-0.65-5.23-1.67-6.63-2.64c-1.4-0.97-1.99-1.82-1.78-2.32
							c0.46-1.1,3.86-0.48,8.93-0.75c5.02-0.21,11.94-1.61,17.91-5.8c5.95-4.21,9.6-10.25,11.49-14.9
							C370.13,240.48,370.7,237.07,371.89,237.01z"/>
					</g>
				</g>
			</g>
			<g>
				<g>
					<path class="st2" d="M343.92,250.2c3.32-0.3,6.66-1.6,8.8-3.94c1.28-1.39,2.45-3.5,2.3-5.39c-0.15-1.88-1.57-3.72-3.45-3.92
						c-1.33-0.14-2.62,0.5-3.75,1.22c-1.13,0.72-2.24,1.55-3.55,1.85c-1.87,0.42-3.79-0.32-5.56-1.07
						c-1.77-0.75-3.66-1.53-5.55-1.19c-1.06,0.19-2.47,0.61-3.04,2.07c0,0-0.95,2.08,0.96,4.86
						C332.81,247.19,337.37,250.79,343.92,250.2z"/>
				</g>
			</g>
		</g>
		<g>
			<g>
				<path class="st2" d="M329.42,232.04c-0.53-1.06-1.75-1.67-2.9-1.52c-0.36,0.02-0.7,0.14-0.99,0.33
					c-0.01,0.01-0.02,0.01-0.03,0.02l0.01,0c-0.88,0.61-1.37,1.89-1.17,3c0.28,1.52,2.1,2.54,3.56,2.01
					C329.37,235.35,330.11,233.43,329.42,232.04z"/>
			</g>
		</g>
		<g>
			<g>
				<path class="st2" d="M359.78,232.14c-0.53-1.06-1.75-1.67-2.9-1.52c-0.36,0.02-0.7,0.14-0.99,0.33
					c-0.01,0.01-0.02,0.01-0.03,0.02l0.01,0c-0.88,0.61-1.37,1.89-1.17,3c0.28,1.52,2.1,2.54,3.56,2.01S360.47,233.53,359.78,232.14
					z"/>
			</g>
		</g>
	</g>
	<g>
		<g>
			<g>
				<g>
					<g>
						<circle class="st1" cx="347.64" cy="67.94" r="23.84"/>
					</g>
				</g>
			</g>
			<g>
				<g>
					<g>
						<path class="st0" d="M369.63,63.87c0.41-0.02,0.85,0.6,1.18,1.84c0.33,1.23,0.48,3.07,0.19,5.33
							c-0.28,2.26-1.08,4.91-2.57,7.59c-1.49,2.67-3.73,5.33-6.67,7.43c-2.97,2.06-6.23,3.28-9.24,3.78
							c-3.02,0.51-5.79,0.36-8.01-0.13c-2.23-0.49-3.91-1.25-4.95-1.97c-1.05-0.73-1.49-1.36-1.33-1.73
							c0.35-0.82,2.89-0.36,6.67-0.56c3.75-0.16,8.92-1.21,13.38-4.33c4.44-3.14,7.17-7.66,8.58-11.14
							C368.32,66.47,368.74,63.92,369.63,63.87z"/>
					</g>
				</g>
			</g>
			<g>
				<g>
					<path class="st2" d="M346.55,63.86c-2.48,0.22-4.97,1.2-6.57,2.94c-0.95,1.04-1.83,2.62-1.72,4.03
						c0.11,1.41,1.18,2.78,2.58,2.93c1,0.11,1.96-0.37,2.8-0.91c0.85-0.54,1.67-1.16,2.65-1.38c1.4-0.32,2.83,0.24,4.15,0.8
						c1.32,0.56,2.73,1.14,4.15,0.89c0.79-0.14,1.85-0.46,2.27-1.55c0,0,0.71-1.55-0.72-3.63C354.85,66.1,351.45,63.42,346.55,63.86
						z"/>
				</g>
			</g>
		</g>
		<g>
			<g>
				<path class="st2" d="M337.9,60.16c-0.39-0.79-1.31-1.25-2.17-1.14c-0.27,0.01-0.52,0.1-0.74,0.25c-0.01,0-0.01,0.01-0.02,0.01
					l0.01,0c-0.65,0.45-1.02,1.41-0.87,2.24c0.21,1.14,1.57,1.9,2.66,1.5C337.86,62.63,338.42,61.2,337.9,60.16z"/>
			</g>
		</g>
		<g>
			<g>
				<path class="st2" d="M360.58,60.24c-0.39-0.79-1.31-1.25-2.17-1.14c-0.27,0.01-0.52,0.1-0.74,0.25c-0.01,0-0.01,0.01-0.02,0.01
					l0.01,0c-0.65,0.45-1.02,1.41-0.87,2.24c0.21,1.14,1.57,1.9,2.66,1.5C360.54,62.7,361.1,61.27,360.58,60.24z"/>
			</g>
		</g>
	</g>
	<g>
		<g>
			<g>
				<g>
					<g>
						<circle class="st1" cx="55.7" cy="224.01" r="21.24"/>
					</g>
				</g>
			</g>
			<g>
				<g>
					<g>
						<path class="st0" d="M75.29,220.38c0.36-0.02,0.76,0.54,1.05,1.64c0.3,1.09,0.43,2.73,0.17,4.75
							c-0.25,2.01-0.96,4.38-2.29,6.76c-1.32,2.38-3.32,4.75-5.94,6.62c-2.64,1.84-5.55,2.92-8.23,3.37
							c-2.69,0.45-5.16,0.32-7.14-0.12c-1.98-0.44-3.48-1.11-4.41-1.76c-0.93-0.65-1.33-1.21-1.18-1.54
							c0.31-0.73,2.57-0.32,5.94-0.5c3.34-0.14,7.95-1.07,11.92-3.86c3.96-2.8,6.39-6.82,7.65-9.92
							C74.12,222.69,74.5,220.42,75.29,220.38z"/>
					</g>
				</g>
			</g>
			<g>
				<g>
					<path class="st2" d="M56.67,229.16c2.21-0.2,4.43-1.07,5.86-2.62c0.85-0.93,1.63-2.33,1.53-3.59c-0.1-1.25-1.05-2.48-2.3-2.61
						c-0.89-0.1-1.74,0.33-2.5,0.81c-0.75,0.48-1.49,1.03-2.36,1.23c-1.25,0.28-2.52-0.21-3.7-0.71c-1.18-0.5-2.44-1.02-3.69-0.79
						c-0.7,0.13-1.65,0.41-2.02,1.38c0,0-0.63,1.38,0.64,3.24C49.27,227.16,52.31,229.55,56.67,229.16z"/>
				</g>
			</g>
		</g>
		<g>
			<g>
				<path class="st2" d="M47.02,217.07c-0.35-0.71-1.16-1.11-1.93-1.01c-0.24,0.01-0.46,0.09-0.66,0.22c-0.01,0-0.01,0.01-0.02,0.01
					l0.01,0c-0.58,0.4-0.91,1.26-0.78,1.99c0.19,1.01,1.4,1.69,2.37,1.34C46.98,219.27,47.48,218,47.02,217.07z"/>
			</g>
		</g>
		<g>
			<g>
				<path class="st2" d="M67.23,217.14c-0.35-0.71-1.16-1.11-1.93-1.01c-0.24,0.01-0.46,0.09-0.66,0.22c-0.01,0-0.01,0.01-0.02,0.01
					l0.01,0c-0.58,0.4-0.91,1.26-0.78,1.99c0.19,1.01,1.4,1.69,2.37,1.34C67.19,219.34,67.69,218.06,67.23,217.14z"/>
			</g>
		</g>
	</g>
	<g>
		<g>
			<g>
				<g>
					<g>
						<g>
							<g>
								<g>
									<g>
										
											<rect x="365.03" y="392.21" transform="matrix(1 -5.347457e-03 5.347457e-03 1 -2.1928 2.0531)" class="st1" width="35.61" height="37.77"/>
									</g>
								</g>
							</g>
						</g>
					</g>
				</g>
			</g>
			<g>
				<g>
					<g>
						<g>
							<g>
								<g>
									<g>
										
											<rect x="400.47" y="392.02" transform="matrix(1 -5.353057e-03 5.353057e-03 1 -2.1936 2.2449)" class="st3" width="35.61" height="37.77"/>
									</g>
								</g>
							</g>
						</g>
					</g>
				</g>
			</g>
			<g>
				<g>
					<g>
						<g>
							<g>
								<g>
									<g>
										<g>
											<path class="st0" d="M364.98,402.74c23.66,0.2,47.38,0.06,71.04-0.33c0.49-0.01,0.48-0.75,0-0.76
												c-23.66-0.13-47.38-0.01-71.04,0.43C364.56,402.1,364.57,402.73,364.98,402.74L364.98,402.74z"/>
										</g>
									</g>
								</g>
							</g>
						</g>
					</g>
				</g>
			</g>
		</g>
		<g>
			<g>
				<g>
					<g>
						<g>
							<g>
								<g>
									<g>
										
											<rect x="342.81" y="429.43" transform="matrix(1 -5.357850e-03 5.357850e-03 1 -2.3779 2.0164)" class="st1" width="64.69" height="30.78"/>
									</g>
								</g>
							</g>
						</g>
					</g>
				</g>
			</g>
			<g>
				<g>
					<g>
						<g>
							<g>
								<g>
									<g>
										
											<rect x="407.19" y="429.08" transform="matrix(1 -5.356321e-03 5.356321e-03 1 -2.3744 2.3607)" class="st3" width="64.69" height="30.78"/>
									</g>
								</g>
							</g>
						</g>
					</g>
				</g>
			</g>
			<g>
				<g>
					<g>
						<g>
							<g>
								<g>
									<g>
										<g>
											<path class="st0" d="M342.78,438.16c42.97,0.49,86.1,0.05,129.07-0.64c0.49-0.01,0.48-0.75,0-0.76
												c-42.98-0.23-86.1-0.2-129.07,0.75C342.35,437.52,342.36,438.16,342.78,438.16L342.78,438.16z"/>
										</g>
									</g>
								</g>
							</g>
						</g>
					</g>
				</g>
			</g>
		</g>
	</g>
</g>
<g id="Background_Simple">
	<g>
		<path class="st3" d="M422.64,127.15l-2.21-3.64c-18.64-30.72-52.35-49.24-87.88-46.99c-4.57,0.29-9.12,0.91-13.6,1.87
			c-32.31,6.92-60.42,31.35-72.08,62.64c-6.85,18.4-8.77,39.59-21.77,54.2c-16.93,19.01-45.66,19.61-70.93,18.82
			s-54.02-0.12-70.86,18.97c-10.55,11.95-13.9,28.95-13.05,44.96c2.25,42.38,31.78,80.28,69.34,99.11
			c37.56,18.84,81.78,20.52,122.88,12.24c57.58-11.61,112.34-43.48,145.26-92.72S448.98,180.29,422.64,127.15z"/>
	</g>
	<g>
		<circle class="st3" cx="72.08" cy="374.49" r="21.55"/>
	</g>
	<g>
		<circle class="st3" cx="412.73" cy="54.78" r="21.55"/>
	</g>
</g>
<g id="Character">
	<g>
		<g>
			<g>
				<path class="st4" d="M338.67,261.5l-50.79-16.29l-60.79-0.23c0,0-46.91,14.63-52.61,17.65l-2.62,126.43l-2.04,72.1l165.68-0.88
					v-87.32L338.67,261.5z"/>
			</g>
			<g>
				<path class="st4" d="M174.48,262.63c0,0-18.93,15.58-28.79,41.64c-6.76,17.86-22.12,57.49-22.12,57.49l48.13,17.06l10.89-76.85
					L174.48,262.63z"/>
			</g>
			<g>
				<path class="st4" d="M332.78,259.61c0,0,12.54,1.07,24.82,20.76c8.67,13.89,29.77,74.71,29.77,74.71l-55.55,19.41l-13.41-10.33
					L332.78,259.61z"/>
			</g>
			<g>
				<g>
					<path class="st5" d="M171.86,293.9c0.14,0,0.26,21.31,0.26,47.58c0,26.28-0.12,47.58-0.26,47.58c-0.14,0-0.26-21.3-0.26-47.58
						C171.6,315.21,171.72,293.9,171.86,293.9z"/>
				</g>
			</g>
			<g>
				<g>
					<path class="st2" d="M169.48,298.46c-0.02,0.05-1-0.19-2.48-0.87c-1.48-0.68-3.44-1.85-5.3-3.51
						c-1.86-1.67-3.23-3.49-4.06-4.89c-0.84-1.4-1.18-2.35-1.13-2.38c0.15-0.1,1.86,3.61,5.54,6.88
						C165.68,297,169.56,298.3,169.48,298.46z"/>
				</g>
			</g>
			<g>
				<g>
					<path class="st2" d="M333.22,302.68c0,0.01-0.12,0.08-0.37,0.2c-0.27,0.14-0.64,0.32-1.11,0.55c-1.01,0.49-2.45,1.19-4.3,2.08
						c-0.94,0.45-1.98,0.95-3.11,1.49c-1.15,0.51-2.44,1-3.8,1.56c-2.74,1.07-5.81,2.45-9.37,3.54c-1.76,0.59-3.61,1.2-5.53,1.84
						c-1.93,0.63-3.98,1.1-6.09,1.68c-1.05,0.28-2.13,0.57-3.22,0.86c-0.55,0.14-1.09,0.3-1.65,0.43c-0.56,0.11-1.13,0.23-1.7,0.35
						c-2.28,0.47-4.62,0.94-7.03,1.44c-9.67,1.67-20.43,2.81-31.77,2.87c-11.34-0.06-22.1-1.21-31.77-2.88
						c-2.4-0.49-4.75-0.97-7.03-1.44c-0.57-0.12-1.13-0.23-1.7-0.35c-0.56-0.13-1.1-0.29-1.65-0.43c-1.09-0.29-2.16-0.58-3.22-0.86
						c-2.1-0.59-4.16-1.06-6.09-1.68c-1.92-0.64-3.77-1.25-5.53-1.84c-3.55-1.08-6.62-2.46-9.36-3.54c-1.36-0.56-2.65-1.04-3.8-1.56
						c-1.14-0.54-2.18-1.04-3.11-1.49c-1.85-0.89-3.29-1.59-4.3-2.08c-0.47-0.23-0.84-0.42-1.11-0.55c-0.25-0.13-0.37-0.2-0.37-0.2
						c0-0.01,0.14,0.05,0.39,0.16c0.28,0.12,0.65,0.29,1.13,0.51c1.02,0.47,2.47,1.13,4.34,1.99c0.94,0.44,1.99,0.92,3.13,1.45
						c1.16,0.5,2.44,0.97,3.81,1.52c2.75,1.05,5.82,2.4,9.37,3.46c1.76,0.57,3.6,1.18,5.53,1.8c1.92,0.62,3.98,1.07,6.08,1.65
						c1.05,0.28,2.12,0.56,3.21,0.84c0.55,0.14,1.09,0.3,1.65,0.42c0.56,0.11,1.12,0.23,1.69,0.34c2.27,0.46,4.61,0.93,7.01,1.41
						c9.65,1.64,20.38,2.77,31.69,2.83c11.3-0.06,22.03-1.18,31.68-2.82c2.4-0.48,4.74-0.95,7.01-1.41
						c0.57-0.11,1.13-0.23,1.69-0.34c0.56-0.12,1.1-0.28,1.65-0.42c1.09-0.29,2.16-0.57,3.21-0.84c2.1-0.58,4.15-1.03,6.08-1.65
						c1.92-0.63,3.77-1.23,5.53-1.8c3.55-1.06,6.62-2.41,9.37-3.46c1.37-0.55,2.65-1.02,3.81-1.52c1.14-0.53,2.19-1.01,3.13-1.45
						c1.86-0.85,3.32-1.52,4.34-1.99c0.48-0.21,0.86-0.38,1.13-0.51C333.08,302.73,333.22,302.67,333.22,302.68z"/>
				</g>
			</g>
			<g>
				<g>
					<path class="st2" d="M357.51,285.17c0.02,0.03-0.2,0.27-0.64,0.7c-0.43,0.43-1.08,1.02-1.91,1.73
						c-1.64,1.42-4.02,3.28-6.79,5.11c-2.78,1.82-5.42,3.27-7.38,4.21c-0.98,0.47-1.78,0.84-2.35,1.06
						c-0.56,0.23-0.88,0.34-0.9,0.31c-0.03-0.07,1.17-0.67,3.07-1.7c1.91-1.03,4.51-2.51,7.26-4.32c2.76-1.82,5.15-3.61,6.84-4.96
						C356.43,285.97,357.46,285.11,357.51,285.17z"/>
				</g>
			</g>
			<g>
				<g>
					<path class="st2" d="M171.06,309.75c-0.01,0.03-0.34-0.03-0.93-0.16c-0.59-0.13-1.43-0.39-2.45-0.75
						c-2.04-0.73-4.77-2.05-7.44-4.02c-2.67-1.98-4.73-4.2-6.03-5.93c-0.65-0.87-1.14-1.59-1.44-2.12
						c-0.31-0.52-0.46-0.82-0.43-0.84c0.08-0.05,0.8,1.08,2.16,2.73c1.36,1.66,3.42,3.8,6.05,5.74c2.63,1.94,5.28,3.28,7.26,4.09
						C169.79,309.31,171.08,309.67,171.06,309.75z"/>
				</g>
			</g>
			<g>
				<g>
					<path class="st2" d="M330.36,320.05c0,0.01-0.12,0.07-0.37,0.19c-0.27,0.13-0.64,0.3-1.11,0.53c-1,0.46-2.44,1.13-4.28,1.98
						c-0.93,0.43-1.97,0.9-3.1,1.42c-1.15,0.48-2.42,0.94-3.78,1.46c-2.73,1-5.78,2.31-9.31,3.29c-1.75,0.54-3.58,1.1-5.49,1.69
						c-1.91,0.57-3.96,0.98-6.04,1.51c-1.05,0.25-2.11,0.51-3.19,0.77c-0.54,0.12-1.08,0.27-1.64,0.38c-0.56,0.1-1.12,0.2-1.68,0.3
						c-2.26,0.4-4.59,0.81-6.97,1.23c-9.58,1.38-20.23,2.19-31.42,1.88c-11.18-0.43-21.76-1.95-31.23-3.97
						c-2.35-0.58-4.64-1.15-6.87-1.69c-0.56-0.14-1.11-0.27-1.66-0.41c-0.55-0.15-1.08-0.33-1.61-0.49
						c-1.06-0.33-2.11-0.66-3.14-0.98c-2.05-0.67-4.06-1.21-5.93-1.91c-1.87-0.71-3.66-1.4-5.37-2.05
						c-3.46-1.22-6.42-2.72-9.07-3.91c-1.32-0.61-2.56-1.15-3.67-1.71c-1.09-0.59-2.1-1.13-3-1.62c-1.78-0.97-3.17-1.73-4.14-2.26
						c-0.45-0.25-0.81-0.45-1.07-0.6c-0.24-0.14-0.36-0.21-0.36-0.22c0-0.01,0.13,0.05,0.38,0.17c0.27,0.14,0.63,0.32,1.09,0.55
						c0.98,0.51,2.38,1.24,4.18,2.17c0.91,0.48,1.91,1,3.01,1.58c1.12,0.55,2.37,1.07,3.69,1.67c2.66,1.16,5.63,2.63,9.08,3.83
						c1.71,0.64,3.5,1.32,5.37,2.02c1.87,0.69,3.88,1.22,5.92,1.88c1.03,0.32,2.07,0.64,3.13,0.96c0.53,0.16,1.06,0.34,1.61,0.48
						c0.55,0.13,1.1,0.27,1.66,0.4c2.22,0.54,4.51,1.1,6.86,1.67c9.45,1.99,19.99,3.49,31.14,3.92c11.15,0.31,21.77-0.48,31.33-1.83
						c2.38-0.41,4.7-0.82,6.95-1.21c0.56-0.1,1.12-0.19,1.68-0.29c0.55-0.11,1.09-0.25,1.64-0.37c1.08-0.26,2.14-0.51,3.19-0.75
						c2.08-0.52,4.12-0.92,6.04-1.48c1.91-0.57,3.74-1.13,5.49-1.65c3.53-0.96,6.59-2.24,9.32-3.21c1.36-0.51,2.64-0.95,3.79-1.42
						c1.14-0.5,2.18-0.96,3.11-1.37c1.85-0.81,3.3-1.44,4.32-1.88c0.48-0.2,0.85-0.36,1.13-0.48
						C330.22,320.09,330.35,320.04,330.36,320.05z"/>
				</g>
			</g>
			<g>
				<g>
					<path class="st2" d="M363.17,291.84c0.02,0.03-0.29,0.36-0.87,0.93c-0.58,0.58-1.44,1.38-2.53,2.36
						c-2.17,1.96-5.24,4.58-8.79,7.29c-3.54,2.71-6.88,5-9.34,6.57c-1.23,0.79-2.24,1.41-2.94,1.82c-0.71,0.41-1.1,0.62-1.12,0.59
						c-0.02-0.03,0.34-0.3,1.02-0.77c0.76-0.52,1.71-1.18,2.85-1.95c2.4-1.65,5.69-3.98,9.22-6.68c3.53-2.7,6.64-5.27,8.86-7.15
						c1.05-0.89,1.93-1.64,2.63-2.24C362.79,292.1,363.15,291.82,363.17,291.84z"/>
				</g>
			</g>
			<g>
				<g>
					<path class="st2" d="M245.4,402.63c0,0.02-0.25,0.05-0.73,0.08c-0.53,0.03-1.23,0.08-2.1,0.13c-0.91,0.06-2.03,0.1-3.33,0.13
						c-1.3,0.04-2.78,0.07-4.41,0.05c-3.27,0.03-7.17-0.12-11.49-0.35c-4.32-0.28-9.06-0.69-14.01-1.29
						c-4.95-0.63-9.65-1.38-13.91-2.17c-4.24-0.83-8.06-1.64-11.22-2.47c-1.59-0.38-3.02-0.78-4.27-1.13
						c-1.25-0.34-2.33-0.65-3.2-0.94c-0.83-0.27-1.5-0.48-2.01-0.64c-0.46-0.15-0.69-0.24-0.69-0.26c0.01-0.02,0.25,0.04,0.72,0.16
						c0.51,0.14,1.19,0.32,2.03,0.55c0.88,0.25,1.96,0.54,3.22,0.85c1.26,0.32,2.69,0.7,4.28,1.06c3.17,0.78,6.98,1.55,11.22,2.36
						c4.25,0.76,8.94,1.5,13.88,2.13c4.94,0.6,9.67,1.03,13.98,1.33c4.31,0.25,8.19,0.44,11.46,0.46c1.63,0.04,3.11,0.03,4.41,0.02
						c1.3,0,2.41-0.01,3.33-0.04c0.87-0.01,1.57-0.03,2.1-0.03C245.14,402.61,245.4,402.61,245.4,402.63z"/>
				</g>
			</g>
			<g>
				<g>
					<path class="st2" d="M232.75,413.88c0,0.02-0.21,0.04-0.62,0.06c-0.47,0.02-1.06,0.04-1.79,0.06
						c-0.78,0.03-1.73,0.04-2.84,0.02c-1.11-0.01-2.37-0.02-3.76-0.08c-2.79-0.08-6.1-0.34-9.77-0.68
						c-3.67-0.38-7.69-0.89-11.89-1.54c-8.41-1.32-15.95-2.9-21.38-4.1c-2.72-0.6-4.92-1.11-6.43-1.48
						c-0.71-0.18-1.29-0.32-1.74-0.43c-0.4-0.1-0.6-0.17-0.6-0.19c0-0.02,0.22,0.01,0.62,0.08c0.46,0.09,1.04,0.2,1.76,0.34
						c1.59,0.32,3.78,0.77,6.46,1.31c5.46,1.11,13,2.62,21.39,3.94c4.19,0.65,8.2,1.17,11.86,1.58c3.66,0.37,6.96,0.66,9.74,0.79
						c1.39,0.09,2.65,0.12,3.75,0.16c1.1,0.05,2.06,0.07,2.83,0.07c0.73,0.01,1.33,0.03,1.79,0.04
						C232.53,413.85,232.75,413.86,232.75,413.88z"/>
				</g>
			</g>
			<g>
				<g>
					<path class="st2" d="M335.51,391.67c0,0.01-0.07,0.03-0.22,0.07c-0.18,0.05-0.39,0.1-0.65,0.17c-0.62,0.14-1.46,0.34-2.52,0.59
						c-2.19,0.51-5.36,1.18-9.3,1.94c-7.88,1.53-18.83,3.31-31.02,4.57c-12.19,1.25-23.28,1.75-31.3,1.87
						c-4.01,0.06-7.26,0.06-9.5,0.01c-1.09-0.03-1.95-0.05-2.58-0.06c-0.27-0.01-0.49-0.02-0.67-0.03
						c-0.15-0.01-0.23-0.02-0.23-0.03c0-0.01,0.08-0.02,0.23-0.03c0.18-0.01,0.4-0.01,0.67-0.02c0.64-0.01,1.5-0.02,2.58-0.04
						c2.24-0.01,5.49-0.07,9.49-0.17c8.01-0.21,19.08-0.77,31.26-2.02c12.17-1.26,23.12-2.98,31-4.42c3.94-0.72,7.13-1.33,9.33-1.77
						c1.07-0.21,1.91-0.37,2.54-0.49c0.26-0.05,0.48-0.08,0.66-0.12C335.43,391.67,335.5,391.67,335.51,391.67z"/>
				</g>
			</g>
			<g>
				<g>
					<path class="st2" d="M335.51,405.52c0,0.01-0.08,0.03-0.25,0.07c-0.2,0.04-0.44,0.09-0.74,0.15c-0.69,0.13-1.65,0.31-2.86,0.55
						c-2.48,0.46-6.08,1.1-10.54,1.81c-4.45,0.74-9.78,1.5-15.69,2.28c-5.92,0.74-12.45,1.45-19.32,1.98
						c-6.88,0.5-13.44,0.76-19.41,0.81c-5.97-0.03-11.36-0.16-15.86-0.58c-1.13-0.09-2.2-0.16-3.21-0.27
						c-1.01-0.12-1.96-0.23-2.85-0.34c-0.89-0.11-1.72-0.21-2.48-0.3c-0.76-0.11-1.45-0.24-2.07-0.34c-1.21-0.21-2.17-0.38-2.86-0.5
						c-0.3-0.06-0.55-0.11-0.74-0.14c-0.17-0.04-0.25-0.06-0.25-0.07c0-0.01,0.09,0,0.26,0.01c0.2,0.02,0.45,0.05,0.75,0.09
						c0.7,0.1,1.66,0.23,2.88,0.4c0.62,0.09,1.32,0.2,2.08,0.29c0.77,0.08,1.59,0.17,2.48,0.26c0.89,0.09,1.84,0.19,2.85,0.3
						c1.01,0.09,2.08,0.15,3.21,0.23c4.49,0.37,9.87,0.46,15.83,0.47c5.96-0.08,12.51-0.35,19.38-0.85
						c6.86-0.53,13.38-1.23,19.3-1.94c5.92-0.75,11.24-1.48,15.7-2.17c4.46-0.67,8.07-1.25,10.56-1.65
						c1.21-0.19,2.17-0.34,2.87-0.45c0.3-0.04,0.55-0.08,0.75-0.1C335.42,405.52,335.5,405.52,335.51,405.52z"/>
				</g>
			</g>
			<g>
				<g>
					<path class="st5" d="M304.59,352.7c0.01,0.01-0.07,0.08-0.24,0.23c-0.18,0.16-0.42,0.36-0.72,0.62
						c-0.67,0.56-1.61,1.35-2.82,2.35c-2.48,2.05-6.02,4.99-10.39,8.61c-8.76,7.28-20.81,17.41-33.94,28.79
						c-13.13,11.39-24.87,21.87-33.32,29.51c-4.2,3.81-7.61,6.9-9.99,9.06c-1.16,1.05-2.08,1.87-2.72,2.46
						c-0.3,0.26-0.53,0.47-0.72,0.63c-0.16,0.14-0.25,0.21-0.26,0.2s0.07-0.09,0.22-0.24c0.17-0.17,0.4-0.39,0.68-0.67
						c0.63-0.6,1.52-1.45,2.66-2.53c2.31-2.19,5.69-5.33,9.88-9.18c8.39-7.71,20.09-18.24,33.23-29.63
						c13.14-11.38,25.22-21.47,34.05-28.68c4.41-3.6,8-6.5,10.49-8.48c1.23-0.97,2.19-1.73,2.88-2.27c0.31-0.24,0.56-0.43,0.76-0.58
						C304.49,352.75,304.59,352.69,304.59,352.7z"/>
				</g>
			</g>
			<g class="st6">
				<g>
					<path d="M255.15,394.41l-34.42,30.36c29.65-13.43,54.97-33.88,71.44-61.95L255.15,394.41z"/>
				</g>
			</g>
			<g class="st6">
				<g>
					<path d="M335.51,372.95c7.44-15.09,7.61-44.67,0.1-60.98C336.05,330.31,336.01,354.66,335.51,372.95"/>
				</g>
			</g>
			<g>
				<g>
					<path class="st5" d="M335.51,297.37c0.14,0,0.26,36.47,0.26,81.45c0,44.99-0.12,81.46-0.26,81.46
						c-0.14,0-0.26-36.46-0.26-81.46C335.24,333.84,335.36,297.37,335.51,297.37z"/>
				</g>
			</g>
		</g>
		<g>
			<g>
				<g>
					<g>
						<g>
							<g>
								<path class="st5" d="M323.28,171.17c2.46-5.41,4.97-10.98,5.32-16.93c0.35-5.96-1.94-12.47-7.03-15.29
									c-4.7-2.61-10.57-1.57-15.58-3.48c-6.18-2.36-9.97-8.72-12.59-14.95c-2.62-6.23,1.27-8.39-3.3-13.29
									c-6.05-6.49-10.06-7.5-17.99-3.79c-5.55-4.13-24.99-11.81-30.65-12.11c-8.38-0.45-17.95,0.01-23.94,5.89
									c-4.65,4.56-7.67,10.43-13.32,13.66c-7.78,4.45-17.47,0.3-26.42,0.43c-1.83,0.03-3.96,0.44-4.75,2.09
									c-0.68,1.42-0.03,3.1,0.62,4.54c2.2,4.86,4.39,9.73,6.59,14.59c-3.79,1.66-8.35,1.44-11.97-0.56
									c0.19,9.43,3.82,18.76,10.06,25.84c-1.56-1.16-3.98-0.05-4.81,1.71c-0.83,1.76-0.51,3.83-0.05,5.72
									c2.86,11.6,10.93,21.8,21.56,27.25c10.63,5.45,23.63,6.05,34.71,1.61l49.25,4.83c1.28,3.88,4.5,7.01,8.33,8.09
									c5.62-3.96,6.55-6.24,6.55-6.24c3.34,2.61,0.7,1.27,3.34,2.61c6.05,3.05,15.18-0.2,16.71-6.99c0.64-2.84,1.5-5.55,3.45-7.45
									c2-1.94,4.8-2.64,7.3-3.83c3.93-1.87,7.23-5.1,9.24-9.05C329.91,176.03,325.97,174.21,323.28,171.17z"/>
							</g>
						</g>
					</g>
				</g>
				<g>
					<g>
						<g>
							<g>
								<path class="st7" d="M248.18,99.33l-2.48,0.12c-24.94,1.26-44.76,21.44-45.51,46.4c-0.7,23.24-1.18,48.94-0.4,61.35
									c1.61,25.68,27.52,28.38,27.52,28.38c0.01,0.27-0.08,4.12-0.23,9.39c-0.45,16.96,13.17,30.96,30.14,30.96h0
									c16.47,0,29.9-13.22,30.15-29.7l1.47-97.01C289.8,122.43,275,99.54,248.18,99.33z"/>
							</g>
							<g>
								<g>
									<g>
										<g>
											<g>
												<g>
													<g>
														<g>
															<g>
																<g>
																	<g>
																		<g>
																			<g>
																				<g>
																					<g>
																						<g>
																							<g>
																								<g>
																									<g>
																										<path class="st8" d="M227.31,235.59c0,0,16.25,0.13,32.96-11.58c0,0-7.22,19.18-32.98,18.16
																											L227.31,235.59z"/>
																									</g>
																								</g>
																							</g>
																						</g>
																					</g>
																				</g>
																			</g>
																		</g>
																	</g>
																</g>
															</g>
														</g>
													</g>
												</g>
											</g>
										</g>
									</g>
								</g>
							</g>
						</g>
					</g>
				</g>
				<g>
					<g>
						<g>
							<g>
								<g>
									<g>
										<g>
											<g>
												<g>
													<g>
														<g>
															<g>
																<g>
																	<g>
																		<g>
																			<g>
																				<g>
																					<g>
																						<g>
																							<g>
																								<g>
																									<g>
																										<g>
																											<g>
																												<g>
																													<g>
																														<path class="st5" d="M243.78,157.35c0.5,0.53,3.51-1.79,7.81-1.8c4.29-0.08,7.46,2.16,7.92,1.62
																															c0.23-0.24-0.28-1.2-1.66-2.22c-1.36-1.01-3.67-1.99-6.34-1.96c-2.68,0.03-4.92,1.06-6.21,2.1
																															C243.98,156.14,243.54,157.11,243.78,157.35z"/>
																													</g>
																												</g>
																											</g>
																										</g>
																									</g>
																								</g>
																							</g>
																						</g>
																					</g>
																				</g>
																			</g>
																		</g>
																	</g>
																</g>
															</g>
														</g>
													</g>
												</g>
											</g>
										</g>
									</g>
									<g>
										<g>
											<g>
												<g>
													<g>
														<g>
															<g>
																<g>
																	<g>
																		<g>
																			<g>
																				<g>
																					<g>
																						<g>
																							<g>
																								<g>
																									<g>
																										<g>
																											<g>
																												<g>
																													<path class="st5" d="M247.62,165.36c0.03,1.84,1.61,3.33,3.52,3.33c1.91,0.01,3.45-1.47,3.42-3.31
																														c-0.03-1.84-1.61-3.33-3.52-3.34C249.12,162.04,247.59,163.52,247.62,165.36z"/>
																												</g>
																											</g>
																										</g>
																									</g>
																								</g>
																							</g>
																						</g>
																					</g>
																				</g>
																			</g>
																		</g>
																	</g>
																</g>
															</g>
														</g>
													</g>
												</g>
											</g>
										</g>
									</g>
									<g>
										<g>
											<g>
												<g>
													<g>
														<g>
															<g>
																<g>
																	<g>
																		<g>
																			<g>
																				<g>
																					<g>
																						<g>
																							<g>
																								<g>
																									<g>
																										<g>
																											<g>
																												<g>
																													<path class="st5" d="M232.35,186.98c0.01-0.23-2.47-0.53-6.47-0.83c-1.01-0.05-1.98-0.21-2.18-0.88
																														c-0.27-0.72,0.09-1.83,0.52-3.02c0.83-2.49,1.69-5.1,2.6-7.83c3.59-11.14,6.13-20.28,5.68-20.42
																														c-0.45-0.14-3.73,8.78-7.32,19.92c-0.86,2.75-1.68,5.36-2.47,7.87c-0.32,1.17-0.91,2.5-0.32,3.99
																														c0.31,0.74,1.08,1.25,1.73,1.39c0.66,0.16,1.22,0.15,1.73,0.15
																														C229.86,187.31,232.35,187.21,232.35,186.98z"/>
																												</g>
																											</g>
																										</g>
																									</g>
																								</g>
																							</g>
																						</g>
																					</g>
																				</g>
																			</g>
																		</g>
																	</g>
																</g>
															</g>
														</g>
													</g>
												</g>
											</g>
										</g>
									</g>
								</g>
							</g>
						</g>
						<g>
							<g>
								<g>
									<g>
										<g>
											<g>
												<g>
													<g>
														<g>
															<g>
																<g>
																	<g>
																		<g>
																			<g>
																				<g>
																					<g>
																						<g>
																							<g>
																								<g>
																									<path class="st5" d="M244.77,140.48c0.39,0.96,3.85,0.32,7.96,0.63c4.12,0.22,7.48,1.29,7.97,0.38
																										c0.22-0.43-0.4-1.33-1.78-2.21c-1.37-0.88-3.52-1.67-5.99-1.83c-2.47-0.15-4.69,0.36-6.15,1.06
																										C245.32,139.21,244.6,140.02,244.77,140.48z"/>
																								</g>
																							</g>
																						</g>
																					</g>
																				</g>
																			</g>
																		</g>
																	</g>
																</g>
															</g>
														</g>
													</g>
												</g>
											</g>
										</g>
									</g>
								</g>
							</g>
						</g>
						<g>
							<g>
								<g>
									<g>
										<g>
											<g>
												<g>
													<g>
														<g>
															<g>
																<g>
																	<g>
																		<g>
																			<g>
																				<g>
																					<g>
																						<g>
																							<g>
																								<g>
																									<path class="st5" d="M205,148.28c0.43,0.79,3.8,0,7.87-0.03c4.07-0.11,7.42,0.56,7.87-0.24
																										c0.2-0.38-0.46-1.09-1.86-1.74c-1.39-0.65-3.55-1.17-5.99-1.13c-2.44,0.05-4.6,0.64-6.01,1.34
																										C205.48,147.17,204.81,147.91,205,148.28z"/>
																								</g>
																							</g>
																						</g>
																					</g>
																				</g>
																			</g>
																		</g>
																	</g>
																</g>
															</g>
														</g>
													</g>
												</g>
											</g>
										</g>
									</g>
								</g>
							</g>
						</g>
					</g>
				</g>
				<g>
					<g>
						<g>
							<g>
								<g>
									<g>
										<g>
											<g>
												<g>
													<g>
														<g>
															<g>
																<g>
																	<g>
																		<g>
																			<g>
																				<g>
																					<path class="st7" d="M287.71,168.37c0.43-0.21,17.4-6.11,17.72,11.48c0.32,17.6-17.41,14.29-17.45,13.79
																						C287.94,193.14,287.71,168.37,287.71,168.37z"/>
																				</g>
																			</g>
																		</g>
																	</g>
																</g>
															</g>
														</g>
													</g>
												</g>
											</g>
										</g>
									</g>
								</g>
							</g>
						</g>
					</g>
				</g>
				<g>
					<g>
						<g>
							<g>
								<g>
									<g>
										<g>
											<g>
												<g>
													<g>
														<g>
															<g>
																<g>
																	<g>
																		<g>
																			<g>
																				<g>
																					<g>
																						<path class="st8" d="M293.23,186.88c0.08-0.06,0.31,0.21,0.83,0.44c0.51,0.22,1.38,0.37,2.29,0
																							c1.85-0.72,3.36-3.7,3.38-6.87c0.02-1.6-0.35-3.12-0.94-4.37c-0.56-1.28-1.41-2.16-2.35-2.31
																							c-0.93-0.2-1.59,0.37-1.79,0.87c-0.23,0.5-0.11,0.85-0.2,0.88c-0.05,0.04-0.38-0.29-0.25-1.02
																							c0.07-0.35,0.26-0.77,0.67-1.12c0.42-0.35,1.03-0.54,1.69-0.48c1.36,0.07,2.6,1.29,3.25,2.67
																							c0.72,1.38,1.17,3.09,1.15,4.89c-0.05,3.55-1.8,6.9-4.33,7.68c-1.23,0.35-2.27-0.01-2.81-0.41
																							C293.27,187.3,293.17,186.91,293.23,186.88z"/>
																					</g>
																				</g>
																			</g>
																		</g>
																	</g>
																</g>
															</g>
														</g>
													</g>
												</g>
											</g>
										</g>
									</g>
								</g>
							</g>
						</g>
					</g>
				</g>
				<g>
					<g>
						<g>
							<path class="st5" d="M311.72,140.43c-3.52-6.28-4.21-13.7-6.06-20.67c-1.85-6.96-5.54-14.22-12.27-16.79l-0.15,0.06
								c-6.04-2.59-13.55-2.79-18.64,1.33c-1.03-9.17-8.88-16.58-17.75-19.12c-8.87-2.54-23.2-1.47-31.84,1.78
								c-6.67,2.51-13.19,7.82-21.14,15.66c-3.35,3.3-6.45,6.87-9.22,10.67l-8.29,23.78c-0.85,0.59-1.6,1.32-2.23,2.14
								c-3.18,4.14,2.46,9.54,6.45,6.18c0.02-0.02,0.05-0.04,0.07-0.06c0.77,1.38,1.34,2.77,1.94,4.15l0,0.03l0.13,0.26
								c0.38,0.86,0.77,1.73,1.25,2.58l0.01-0.06l5.4,26.6c0.54-7.21,0.58-32.33,1.12-39.54c11.15-0.23,21.33-4.5,28.98-12.6
								c4.04-4.28,7.26-9.68,12.59-12.17c6.87-3.21,14.92-0.58,22.03,2.07l-0.3-0.28c3.69,1.81,7.03,4.33,9.77,7.39
								c-1.93,14.17-0.78,28.76,3.38,42.45c0.63,2.06,2.37,6.32,4.36,7.14c3.91,1.61,5.07-2.38,7.49-4.46
								c1.78-1.53,4.38-1.68,7.22-1.61c1.77-4.35,3.65-11.7,5.24-18.14c2.37,0.78,4.9,1.03,7.37,0.66
								c-0.72-1.83-1.43-3.66-2.15-5.49c0.97,0.64,1.98,1.31,3.13,1.5c1.15,0.19,2.48-0.21,3.02-1.24
								C313.34,143.32,312.46,141.75,311.72,140.43z"/>
						</g>
					</g>
				</g>
				<g>
					<g>
						<g>
							<g>
								<g>
									<path class="st9" d="M266.46,107.13c-0.05,0.06,1.06,0.7,2.52,2.41c1.45,1.7,3.05,4.64,3.74,8.6
										c0.36,1.97,0.56,4.17,0.51,6.53c-0.04,2.36-0.29,4.89-0.53,7.55c-0.23,2.66-0.49,5.47-0.38,8.4
										c0.05,1.46,0.2,2.96,0.48,4.45c0.29,1.47,0.64,3.06,1.71,4.34c0.86,1.04,2.31,1.53,3.59,1.3c1.29-0.2,2.44-0.85,3.3-1.77
										c1.69-1.89,2.16-4.32,2.62-6.46l-0.54,0.05c0.84,1.95,1.7,3.89,3,5.44c1.28,1.56,3.08,2.62,4.93,2.83
										c0.92,0.1,1.85-0.02,2.65-0.4c0.82-0.37,1.42-1.03,1.84-1.73c0.4-0.71,0.62-1.5,0.6-2.26c-0.03-0.76-0.31-1.49-0.78-2.01
										l-0.28,0.24c1.93,2.3,3.99,3.55,5.42,4.26c0.72,0.35,1.3,0.57,1.69,0.7c0.4,0.13,0.6,0.18,0.61,0.17
										c0.01-0.02-0.19-0.1-0.57-0.26c-0.38-0.17-0.94-0.41-1.64-0.78c-1.38-0.75-3.38-2.04-5.22-4.31l-0.28,0.24
										c0.84,0.93,0.86,2.54,0.08,3.81c-0.39,0.63-0.94,1.21-1.66,1.53c-0.71,0.33-1.56,0.44-2.41,0.34
										c-1.7-0.21-3.37-1.2-4.57-2.69c-1.23-1.49-2.06-3.37-2.89-5.32l-0.35-0.83l-0.19,0.88c-0.46,2.14-0.95,4.48-2.49,6.18
										c-0.77,0.82-1.83,1.41-2.95,1.58c-1.13,0.19-2.31-0.21-3.05-1.1c-0.94-1.11-1.3-2.62-1.58-4.06
										c-0.28-1.46-0.42-2.92-0.48-4.36c-0.11-2.88,0.13-5.68,0.35-8.34c0.23-2.66,0.46-5.2,0.48-7.59
										c0.03-2.39-0.2-4.62-0.59-6.62c-0.76-4.02-2.46-6.99-3.98-8.67C267.62,107.69,266.46,107.13,266.46,107.13z"/>
								</g>
							</g>
						</g>
					</g>
				</g>
				<g>
					<g>
						<g>
							<g>
								<g>
									<path class="st9" d="M186.57,130.29c-0.01,0.01,0.06,0.07,0.2,0.18c0.17,0.13,0.38,0.29,0.63,0.48
										c0.28,0.22,0.63,0.47,1.07,0.72c0.44,0.26,0.93,0.58,1.54,0.86c2.36,1.19,6.15,2.4,10.93,2.22
										c4.74-0.16,10.45-1.71,15.61-5.37c5.21-3.57,9.82-8.89,13.64-15.03c1.93-3.06,3.53-6.21,5.27-9.11
										c1.73-2.9,3.63-5.58,5.91-7.68c2.25-2.11,4.84-3.65,7.49-4.32c1.32-0.36,2.65-0.42,3.91-0.36c1.26,0.1,2.46,0.38,3.55,0.77
										c2.19,0.79,3.95,2.05,5.27,3.34c1.33,1.3,2.21,2.66,2.81,3.82c1.11,2.38,1.14,3.9,1.24,3.87c0.01,0,0.01-0.09-0.01-0.27
										c-0.03-0.21-0.06-0.47-0.1-0.79c-0.11-0.69-0.38-1.69-0.91-2.92c-0.58-1.2-1.45-2.61-2.78-3.96
										c-1.33-1.34-3.11-2.66-5.36-3.5c-1.13-0.41-2.35-0.72-3.66-0.83c-1.3-0.07-2.69-0.02-4.06,0.34
										c-2.75,0.68-5.43,2.25-7.74,4.4c-2.34,2.14-4.28,4.86-6.03,7.78c-1.76,2.92-3.36,6.06-5.27,9.1
										c-3.79,6.09-8.34,11.35-13.45,14.89c-5.06,3.63-10.64,5.18-15.31,5.4c-4.7,0.23-8.45-0.9-10.81-2.01
										C187.74,131.2,186.62,130.22,186.57,130.29z"/>
								</g>
							</g>
						</g>
					</g>
				</g>
				<g>
					<g>
						<g>
							<g>
								<g>
									<path class="st9" d="M184.49,118.97c-0.02,0.04,0.3,0.27,0.91,0.66c0.6,0.4,1.52,0.91,2.69,1.44
										c1.17,0.55,2.63,1.07,4.28,1.51c1.66,0.42,3.52,0.74,5.5,0.86c1.98,0.1,3.86-0.02,5.56-0.25c1.69-0.26,3.2-0.62,4.42-1.04
										c1.23-0.41,2.19-0.81,2.83-1.14c0.64-0.33,0.99-0.52,0.97-0.56c-0.05-0.1-1.48,0.59-3.93,1.3
										c-1.22,0.36-2.71,0.67-4.37,0.9c-1.67,0.2-3.52,0.3-5.45,0.2c-1.93-0.12-3.76-0.41-5.4-0.79
										c-1.63-0.41-3.07-0.88-4.25-1.37C185.9,119.72,184.55,118.88,184.49,118.97z"/>
								</g>
							</g>
						</g>
					</g>
				</g>
				<g>
					<g>
						<g>
							<g>
								<g>
									<g>
										<g>
											<g>
												<g>
													<g>
														<g>
															<g>
																<g>
																	<path class="st5" d="M204.59,158.08c0.5,0.53,3.51-1.79,7.81-1.8c4.29-0.08,7.46,2.16,7.92,1.62
																		c0.23-0.24-0.28-1.2-1.66-2.22c-1.36-1.01-3.67-1.99-6.34-1.96c-2.68,0.03-4.92,1.06-6.21,2.1
																		C204.79,156.88,204.34,157.85,204.59,158.08z"/>
																</g>
															</g>
														</g>
													</g>
												</g>
											</g>
										</g>
									</g>
								</g>
							</g>
						</g>
					</g>
				</g>
				<g>
					<g>
						<g>
							<g>
								<g>
									<g>
										<g>
											<g>
												<g>
													<g>
														<g>
															<g>
																<path class="st5" d="M210.66,166.03c0.03,1.84,1.61,3.33,3.52,3.33c1.91,0.01,3.45-1.47,3.42-3.31
																	c-0.03-1.84-1.61-3.33-3.52-3.34C212.16,162.71,210.63,164.19,210.66,166.03z"/>
															</g>
														</g>
													</g>
												</g>
											</g>
										</g>
									</g>
								</g>
							</g>
						</g>
					</g>
				</g>
			</g>
			<g>
				<g>
					<g>
						<g>
							<g>
								<g>
									<g>
										<path class="st8" d="M229.47,195.45c2.07-0.74,8.18-1.68,10.37-1.92l2.56-0.63l0,0c1.16,1.59,1.14,5.84,0.08,7.5
											c-1.1,1.72-3.08,2.75-5.1,3.03c-1.44,0.2-3.03,0-4.13-0.95C233.25,202.48,230.08,200.98,229.47,195.45"/>
									</g>
								</g>
							</g>
						</g>
					</g>
				</g>
				<g>
					<g>
						<g>
							<path class="st5" d="M235.86,203.24c-0.03-0.16,1.71,0.16,3.81-1.23c1.02-0.69,2.03-1.82,2.6-3.35
								c0.58-1.51,0.77-3.38,0.32-5.19c-0.03-0.1-0.05-0.19-0.07-0.28l0.45,0.29c-3.81,0.59-7.25,1.08-9.75,1.39
								c-2.49,0.31-4.04,0.45-4.06,0.34c-0.02-0.11,1.5-0.45,3.97-0.9c2.47-0.46,5.9-1.04,9.71-1.63l0.36-0.06l0.09,0.35
								c0.03,0.1,0.05,0.2,0.08,0.31c0.5,2,0.26,4.03-0.41,5.67c-0.67,1.66-1.84,2.88-2.99,3.55c-1.16,0.69-2.25,0.9-2.99,0.91
								C236.25,203.41,235.85,203.29,235.86,203.24z"/>
							<path class="st5" d="M236.9,203.53c-0.55,0-1.03-0.08-1.13-0.19l-0.04-0.04l0-0.04l-0.01-0.04l0.04-0.06
								c0.06-0.07,0.15-0.08,0.41-0.1c0.57-0.04,1.91-0.14,3.42-1.15c0.66-0.44,1.87-1.46,2.56-3.29c0.6-1.57,0.72-3.32,0.35-4.94
								c-3.51,0.54-6.78,1-9.27,1.31c-4.15,0.52-4.17,0.39-4.2,0.23c-0.02-0.16-0.04-0.28,4.07-1.05c2.58-0.48,6.03-1.06,9.71-1.63
								l0.48-0.07l0.2,0.77c0.47,1.9,0.33,3.94-0.42,5.75c-0.61,1.52-1.72,2.84-3.04,3.62c-1.32,0.79-2.48,0.92-3.05,0.92
								C236.96,203.53,236.93,203.53,236.9,203.53z M236.56,203.27c0.12,0.01,0.27,0.01,0.43,0.01c0.55-0.01,1.66-0.13,2.93-0.89
								c1.28-0.75,2.35-2.02,2.94-3.49c0.72-1.76,0.86-3.75,0.4-5.59l-0.14-0.55l-0.25,0.04c-3.68,0.57-7.13,1.15-9.71,1.63
								c-1.83,0.34-2.81,0.55-3.32,0.68c0.53-0.03,1.52-0.13,3.37-0.36c2.48-0.31,5.75-0.77,9.24-1.31l-0.13-0.52l1,0.64l-0.33,0.05
								c-0.08,0.01-0.16,0.02-0.23,0.04c0.38,1.67,0.25,3.46-0.37,5.07c-0.53,1.4-1.47,2.61-2.65,3.41
								C238.44,202.98,237.26,203.2,236.56,203.27z"/>
						</g>
					</g>
				</g>
			</g>
		</g>
		<g>
			<g>
				<g>
					<path class="st10" d="M121.74,206.74c0,0-30.5,10.99-45.43,6.67c-14.93-4.32-25.43-10.36-32.92-28.06
						c-6.06-14.32-4.85-31.91,2.41-45.66c6.35-12.03,17.69-18.82,29.62-25.35c14.82-8.11,34.94-14.79,51.83-15.43
						s27.72,4.31,40.2,15.71c12.48,11.39,19.13,29.58,14.72,45.89c-4.66,17.29-20.22,29.57-36.52,36.97c0,0-4.59,16.04,8.34,24.91
						C153.98,222.39,132.89,227.62,121.74,206.74z"/>
				</g>
				<g>
					<g>
						<path class="st5" d="M121.74,206.74c0,0,0.12,0.18,0.35,0.54c0.24,0.38,0.58,0.93,1.03,1.65c0.23,0.37,0.48,0.78,0.76,1.23
							c0.29,0.44,0.68,0.88,1.06,1.38c0.39,0.49,0.81,1.03,1.26,1.6c0.46,0.56,1.05,1.07,1.62,1.66c2.32,2.3,5.65,4.79,10.14,6.34
							c2.22,0.84,4.74,1.32,7.43,1.58c2.69,0.21,5.61,0.16,8.56-0.46l-0.05,0.26c-3.4-2.32-6.42-5.88-7.93-10.36
							c-0.79-2.22-1.19-4.64-1.28-7.12c-0.08-2.49,0.14-5.04,0.77-7.6l0.02-0.08l0.08-0.04c4.58-2.1,9.23-4.64,13.77-7.74
							c4.55-3.08,8.93-6.81,12.82-11.26c0.51-0.54,0.95-1.13,1.42-1.71c0.45-0.59,0.94-1.16,1.37-1.77c0.85-1.24,1.74-2.46,2.48-3.8
							c0.82-1.29,1.46-2.68,2.16-4.07c0.34-0.7,0.59-1.43,0.9-2.15l0.44-1.09c0.13-0.37,0.24-0.75,0.36-1.12
							c1.05-2.96,1.59-6.13,1.87-9.34c0.29-3.22,0.11-6.51-0.39-9.78c-0.96-6.56-3.52-13.02-7.22-18.87
							c-1.89-2.91-4.09-5.66-6.57-8.18c-2.49-2.5-5.25-4.83-8.11-7.01c-5.73-4.36-12.38-7.86-19.72-9.27
							c-7.31-1.46-14.98-1.26-22.55-0.17c-7.64,1.1-15.05,3.04-22.16,5.47c-7.11,2.44-13.94,5.38-20.35,8.83
							c-6.4,3.47-12.65,7.03-18.09,11.43c-5.45,4.36-9.97,9.7-12.79,15.76c-1.45,3.01-2.59,6.11-3.46,9.24
							c-0.84,3.14-1.4,6.31-1.71,9.46c-0.33,3.15-0.33,6.27-0.11,9.33c0.08,1.53,0.31,3.04,0.51,4.53c0.29,1.48,0.52,2.96,0.92,4.39
							c3.12,11.39,9.24,21.41,17.63,27.13c4.16,2.87,8.61,4.82,12.92,6.28c1.08,0.37,2.14,0.72,3.21,1.03
							c1.05,0.36,2.11,0.58,3.16,0.79c1.03,0.28,2.09,0.32,3.12,0.43c1.03,0.14,2.05,0.13,3.05,0.14c4.01,0.03,7.75-0.37,11.15-0.91
							c3.41-0.5,6.49-1.17,9.25-1.79c5.52-1.29,9.74-2.54,12.59-3.42C120.14,207.25,121.41,206.84,121.74,206.74
							c0,0-0.36,0.15-1.08,0.4c-0.72,0.25-1.8,0.62-3.22,1.08c-2.84,0.91-7.06,2.2-12.57,3.52c-2.76,0.63-5.85,1.32-9.26,1.83
							c-3.41,0.56-7.15,0.97-11.19,0.95c-1.01-0.01-2.04,0.01-3.08-0.13c-1.04-0.11-2.11-0.15-3.16-0.43
							c-1.06-0.22-2.14-0.44-3.19-0.79c-1.07-0.31-2.14-0.66-3.22-1.03c-4.33-1.45-8.82-3.4-13.02-6.29
							c-2.1-1.44-4.07-3.17-5.92-5.08c-1.83-1.94-3.48-4.12-5-6.44c-1.44-2.37-2.84-4.84-3.98-7.49c-0.63-1.3-1.12-2.67-1.66-4.04
							c-0.44-1.4-0.94-2.8-1.27-4.26c-0.4-1.44-0.65-2.93-0.94-4.43c-0.2-1.51-0.43-3.03-0.52-4.57c-0.22-3.08-0.23-6.24,0.1-9.41
							c0.31-3.17,0.87-6.37,1.72-9.54c0.88-3.16,2.03-6.29,3.48-9.33c2.84-6.13,7.42-11.54,12.91-15.94
							c5.49-4.44,11.76-8.01,18.16-11.49c6.43-3.47,13.29-6.42,20.42-8.87c7.14-2.44,14.58-4.39,22.26-5.49
							c7.61-1.1,15.34-1.3,22.73,0.18c7.42,1.43,14.15,4.98,19.92,9.37c2.89,2.21,5.64,4.53,8.16,7.06
							c2.51,2.54,4.73,5.33,6.63,8.26c3.74,5.92,6.31,12.44,7.28,19.07c0.5,3.31,0.68,6.63,0.39,9.89
							c-0.29,3.24-0.84,6.45-1.91,9.44c-0.12,0.38-0.23,0.76-0.37,1.13l-0.44,1.1c-0.31,0.73-0.57,1.47-0.91,2.17
							c-0.7,1.4-1.36,2.81-2.18,4.11c-0.75,1.35-1.65,2.58-2.51,3.83c-0.43,0.62-0.93,1.19-1.38,1.79
							c-0.47,0.59-0.92,1.18-1.43,1.73c-3.92,4.48-8.34,8.22-12.92,11.31c-4.57,3.11-9.24,5.64-13.84,7.74l0.1-0.12
							c-0.62,2.49-0.85,5.03-0.77,7.48c0.08,2.45,0.46,4.84,1.24,7.02c1.48,4.41,4.43,7.92,7.78,10.23l0.28,0.19l-0.33,0.07
							c-3.01,0.62-5.93,0.66-8.65,0.44c-2.71-0.27-5.25-0.76-7.48-1.62c-4.52-1.59-7.85-4.12-10.17-6.44
							c-0.57-0.6-1.16-1.12-1.62-1.68c-0.45-0.58-0.86-1.11-1.25-1.61c-0.38-0.5-0.76-0.95-1.05-1.39
							c-0.27-0.45-0.51-0.86-0.73-1.23c-0.43-0.73-0.76-1.29-0.99-1.67C121.85,206.94,121.74,206.74,121.74,206.74z"/>
					</g>
				</g>
			</g>
			<g>
				<g>
					<path class="st5" d="M138.92,123.98c0.06,0.13-16.38,8.32-36.73,18.29c-20.36,9.98-36.9,17.96-36.97,17.83
						c-0.06-0.13,16.38-8.32,36.74-18.3C122.31,131.83,138.86,123.85,138.92,123.98z"/>
				</g>
			</g>
			<g>
				<g>
					<path class="st5" d="M145.78,138.36c0.06,0.13-16.38,8.32-36.73,18.29c-20.36,9.98-36.9,17.96-36.97,17.83
						c-0.06-0.13,16.38-8.32,36.74-18.3C129.16,146.21,145.71,138.23,145.78,138.36z"/>
				</g>
			</g>
			<g>
				<g>
					<path class="st5" d="M152.02,152.24c0.01,0.02-0.23,0.15-0.68,0.39c-0.5,0.26-1.16,0.61-2,1.04c-1.79,0.92-4.3,2.2-7.37,3.77
						c-6.23,3.19-14.79,7.65-24.25,12.59c-9.46,4.94-18.06,9.35-24.33,12.46c-3.13,1.55-5.68,2.79-7.45,3.63
						c-0.85,0.4-1.53,0.71-2.04,0.95c-0.47,0.21-0.72,0.32-0.73,0.3c-0.01-0.02,0.23-0.15,0.68-0.39c0.5-0.26,1.16-0.61,2-1.04
						c1.79-0.92,4.3-2.2,7.37-3.77c6.23-3.19,14.79-7.65,24.26-12.59c9.46-4.94,18.06-9.35,24.33-12.45
						c3.13-1.55,5.68-2.79,7.45-3.63c0.85-0.4,1.53-0.71,2.04-0.95C151.76,152.33,152.01,152.23,152.02,152.24z"/>
				</g>
			</g>
		</g>
		<g>
			<g>
				<path class="st7" d="M147.99,263.56l4.37,93.98l7.68,8.27l9.78,11.88c0,0-9.78,39.47-24.1,42.97
					c-14.32,3.49-29.84-1.8-34.38-14.37c-4.54-12.58-2.22-34.58-0.83-48.68c1.4-14.1,8.03-91.13,8.03-91.13l16.7-6.86L147.99,263.56
					z"/>
			</g>
			<g>
				<g>
					<path class="st7" d="M147.87,264.59c0,0,1.13-8.23,0-13.62c-1.13-5.39-8.51-16.74-8.51-16.74s1.13-10.78,0-12.48
						c-1.13-1.7-3.69-7.94-8.51-1.7c0,0-3.4-7.38-5.67-7.94s-3.4,0-3.4,0l5.96-7.94c0,0,0.34-1.58,0.02-3.25
						c-0.3-1.58-1.71-2.71-3.32-2.71l0,0c-0.99,0-1.92,0.43-2.57,1.18l-14.56,16.98c0,0-9.08,16.45-8.79,18.44s5.39,8.51,5.39,8.51
						s13.05,17.87,14.19,21.28c1.13,3.4,0.57,7.38,0.57,7.38L147.87,264.59z"/>
				</g>
				<g>
					<g>
						<path class="st8" d="M111.49,231.09c-0.07-0.01,0.11-1.25,0.5-3.24c0.41-1.98,1.04-4.73,2.34-7.57
							c1.31-2.84,3.17-5.06,4.8-6.31c0.81-0.63,1.52-1.05,2.04-1.3c0.51-0.25,0.82-0.34,0.83-0.31c0.05,0.09-1.12,0.59-2.63,1.9
							c-1.52,1.29-3.28,3.47-4.56,6.24c-1.28,2.77-1.96,5.48-2.46,7.43C111.86,229.89,111.56,231.1,111.49,231.09z"/>
					</g>
				</g>
				<g>
					<g>
						<path class="st8" d="M124.33,231.64c-0.06-0.01,0.02-0.74,0.33-1.89c0.31-1.14,0.87-2.69,1.72-4.29
							c0.86-1.6,1.83-2.93,2.61-3.82c0.78-0.89,1.34-1.37,1.38-1.32c0.12,0.11-1.87,2.24-3.53,5.39
							C125.16,228.84,124.49,231.68,124.33,231.64z"/>
					</g>
				</g>
				<g>
					<g>
						<path class="st8" d="M138.93,233.75c-0.13,0.07-0.28,0.03-0.34-0.09c-0.06-0.11-0.01-0.26,0.12-0.33
							c0.13-0.07,0.28-0.03,0.34,0.09C139.11,233.54,139.05,233.68,138.93,233.75z"/>
					</g>
				</g>
				<g>
					<g>
						<path class="st8" d="M138.77,238.33c-0.14-0.02-0.05-1.73,0.2-3.82c0.12-0.96,0.25-1.83,0.37-2.49l0.35,0.14
							c-0.52,0.62-0.87,0.98-0.93,0.93c-0.06-0.05,0.18-0.49,0.62-1.16l0.4-0.61l-0.04,0.75c-0.04,0.66-0.12,1.54-0.24,2.5
							C139.24,236.67,138.91,238.35,138.77,238.33z"/>
					</g>
				</g>
			</g>
			<g>
				<g>
					<path class="st8" d="M149.3,294.43c0.01,0,0.02,0.08,0.04,0.24c0.02,0.19,0.05,0.42,0.08,0.7c0.06,0.66,0.15,1.56,0.25,2.7
						c0.18,2.34,0.41,5.74,0.64,9.93c0.46,8.39,0.97,19.99,1.45,32.8c0.48,12.81,0.85,24.42,1.08,32.81
						c0.1,4.17,0.18,7.55,0.24,9.95c0.02,1.14,0.03,2.04,0.04,2.71c0,0.28,0,0.51,0,0.7c0,0.16-0.01,0.24-0.02,0.24
						s-0.02-0.08-0.03-0.24c-0.01-0.19-0.03-0.42-0.05-0.7c-0.03-0.66-0.08-1.56-0.14-2.7c-0.1-2.39-0.24-5.78-0.41-9.94
						c-0.32-8.43-0.75-20.01-1.23-32.81c-0.5-12.79-0.96-24.36-1.29-32.8c-0.2-4.16-0.36-7.54-0.47-9.94
						c-0.07-1.14-0.12-2.04-0.15-2.7c-0.01-0.28-0.02-0.51-0.03-0.7C149.29,294.51,149.29,294.43,149.3,294.43z"/>
				</g>
			</g>
		</g>
		<g>
			<g>
				<path class="st7" d="M425.46,289.46c0,0-22.4,86.03-26.15,95.98c-7.41,19.69-12.47,29.05-20.86,33.96
					c-9.17,5.37-25.57,2.31-29.44-6.45c-3.54-8.02-12.94-41.43-12.94-41.43l28.76-10.37l34.31-71.89L425.46,289.46z"/>
			</g>
			<g>
				<g>
					<path class="st7" d="M476.66,249.05c1.41,1.02-28.82,27.47-28.82,27.47l-22.39,12.93l-7.38,27.48l-23.4-14.45
						c0,0,8.47-27.4,12.41-29.29c6.86-3.29,8.19-14.32,10.64-13.92s3.53,0.36,2.71,4.46c-0.82,4.09-1.15,5.9-1.15,5.9l25.86-7.49
						c0,0,14.32-13.92,18.83-13.1c2.6,0.47,2.9,0.82,2.9,0.82l0,0C466.88,249.87,471.23,245.12,476.66,249.05z"/>
				</g>
				<g>
					<g>
						<path class="st8" d="M445.15,262.15c0.01,0.03-0.42,0.2-1.22,0.47c-0.9,0.29-2.03,0.66-3.37,1.1
							c-2.96,0.93-6.86,2.14-11.17,3.49c-4.31,1.34-8.21,2.55-11.18,3.46c-1.35,0.42-2.49,0.78-3.38,1.06
							c-0.8,0.25-1.25,0.38-1.26,0.34c-0.01-0.03,0.41-0.22,1.19-0.53c0.78-0.31,1.92-0.73,3.34-1.21
							c2.83-0.98,6.77-2.26,11.14-3.61c4.37-1.35,8.34-2.52,11.22-3.34c1.44-0.41,2.61-0.73,3.42-0.94
							C444.69,262.22,445.14,262.12,445.15,262.15z"/>
					</g>
				</g>
				<g>
					<g>
						<path class="st8" d="M449.55,269.4c-0.03-0.02,0.21-0.32,0.66-0.83c0.45-0.51,1.11-1.24,1.93-2.13
							c1.65-1.78,3.95-4.22,6.51-6.89c2.53-2.61,4.81-4.96,6.59-6.79c0.79-0.89,1.23-1.77,1.3-2.42c0.08-0.65-0.11-1.01-0.05-1.02
							c0.02-0.01,0.06,0.08,0.14,0.25c0.06,0.17,0.13,0.44,0.12,0.8c-0.01,0.72-0.44,1.69-1.22,2.64c-1.62,1.84-3.94,4.23-6.5,6.92
							c-2.56,2.67-4.91,5.06-6.62,6.78c-0.86,0.86-1.56,1.55-2.05,2.01C449.86,269.18,449.58,269.42,449.55,269.4z"/>
					</g>
				</g>
			</g>
			<g>
				<g>
					<path class="st8" d="M370.59,349.11c0.13,0.06-3.63,8.9-8.39,19.75c-4.77,10.85-8.74,19.6-8.87,19.55
						c-0.13-0.06,3.63-8.9,8.39-19.76C366.49,357.8,370.46,349.05,370.59,349.11z"/>
				</g>
			</g>
		</g>
	</g>
</g>
<g id="Floor">
	<g>
		<g>
			<path class="st5" d="M470.11,460.28c0,0.14-98.55,0.26-220.1,0.26c-121.59,0-220.12-0.12-220.12-0.26
				c0-0.14,98.53-0.26,220.12-0.26C371.55,460.02,470.11,460.13,470.11,460.28z"/>
		</g>
	</g>
</g>
<g id="Opinion">
	<g>
		<g>
			<g>
				<g>
					<g>
						
							<rect x="379.89" y="210.83" transform="matrix(9.012431e-03 -1 1 9.012431e-03 178.0171 616.1467)" class="st11" width="39.96" height="14.87"/>
					</g>
				</g>
			</g>
			<g class="st6">
				<g>
					<g>
						
							<rect x="379.89" y="210.83" transform="matrix(9.012431e-03 -1 1 9.012431e-03 178.0171 616.1467)" width="39.96" height="14.87"/>
					</g>
				</g>
			</g>
			<g>
				<g>
					<g>
						
							<rect x="375.88" y="210.79" transform="matrix(9.014956e-03 -1 1 9.014956e-03 174.0721 612.094)" class="st11" width="39.96" height="14.87"/>
					</g>
				</g>
			</g>
			<g>
				<g>
					<g>
						<path class="st2" d="M398.92,207.95c-0.02,1.85-1.53,3.34-3.38,3.32c-1.85-0.02-3.34-1.53-3.32-3.38
							c0.02-1.85,1.53-3.34,3.38-3.32C397.45,204.58,398.93,206.09,398.92,207.95z"/>
					</g>
				</g>
			</g>
			<g>
				<g>
					<g>
						<g>
							<path class="st11" d="M407.41,204.36c0.11,0.08-0.71,1.43-1.82,3.01c-1.12,1.58-2.12,2.8-2.23,2.72s0.71-1.43,1.82-3.01
								C406.3,205.5,407.29,204.28,407.41,204.36z"/>
						</g>
					</g>
				</g>
			</g>
			<g>
				<g>
					<g>
						<g>
							<path class="st11" d="M407.37,208.78c0.11,0.08-0.71,1.43-1.82,3.01c-1.12,1.58-2.12,2.8-2.23,2.72
								c-0.11-0.08,0.71-1.43,1.82-3.01C406.26,209.92,407.25,208.7,407.37,208.78z"/>
						</g>
					</g>
				</g>
			</g>
			<g>
				<g>
					<g>
						<g>
							<path class="st11" d="M407.33,213.2c0.11,0.08-0.71,1.43-1.82,3.01c-1.12,1.58-2.12,2.8-2.23,2.72
								c-0.11-0.08,0.71-1.42,1.83-3.01C406.22,214.34,407.21,213.12,407.33,213.2z"/>
						</g>
					</g>
				</g>
			</g>
			<g>
				<g>
					<g>
						<g>
							<path class="st11" d="M407.29,217.62c0.11,0.08-0.71,1.43-1.82,3.01c-1.12,1.58-2.12,2.8-2.23,2.72
								c-0.11-0.08,0.71-1.43,1.82-3.01C406.18,218.76,407.17,217.54,407.29,217.62z"/>
						</g>
					</g>
				</g>
			</g>
			<g>
				<g>
					<g>
						<g>
							<path class="st11" d="M407.25,222.04c0.11,0.08-0.71,1.43-1.82,3.01c-1.12,1.58-2.12,2.8-2.23,2.72
								c-0.11-0.08,0.7-1.42,1.82-3.01C406.14,223.18,407.13,221.96,407.25,222.04z"/>
						</g>
					</g>
				</g>
			</g>
			<g>
				<g>
					<g>
						<g>
							<path class="st11" d="M407.21,226.46c0.11,0.08-0.71,1.43-1.82,3.01c-1.12,1.58-2.12,2.8-2.23,2.72
								c-0.11-0.08,0.71-1.43,1.82-3.01C406.1,227.6,407.09,226.38,407.21,226.46z"/>
						</g>
					</g>
				</g>
			</g>
			<g>
				<g>
					<g>
						<g>
							<path class="st11" d="M407.17,230.88c0.11,0.08-0.71,1.43-1.82,3.01c-1.12,1.58-2.12,2.8-2.23,2.72
								c-0.11-0.08,0.71-1.42,1.82-3.01C406.06,232.02,407.05,230.8,407.17,230.88z"/>
						</g>
					</g>
				</g>
			</g>
			<g>
				<g>
					<g>
						<g>
							<path class="st11" d="M407.4,200.46c0.11,0.08-0.71,1.43-1.82,3.01c-1.12,1.58-2.12,2.8-2.23,2.72
								c-0.11-0.08,0.71-1.43,1.82-3.01C406.29,201.6,407.29,200.38,407.4,200.46z"/>
						</g>
					</g>
				</g>
			</g>
			<g>
				<g>
					<g>
						<g>
							<path class="st11" d="M405.9,198.33c0.11,0.08-0.33,0.9-1,1.84c-0.66,0.94-1.29,1.63-1.4,1.55c-0.11-0.08,0.33-0.9,1-1.84
								C405.16,198.95,405.79,198.26,405.9,198.33z"/>
						</g>
					</g>
				</g>
			</g>
		</g>
		<g>
			<g>
				<g>
					<g>
						<path class="st11" d="M414.66,235.24l1.12-35.3c0,0,7.88-1.46,14.98-12.08c4.7-7.03,3.06-14.54,3.98-17.63
							c0.56-1.89,5.03-1.47,6.99-1.23c1.86,0.23,4.92,1.29,6.18,4.24c2.34,5.47-1.12,18.47-1.12,18.47s-1.48,2.64,2.23,2.68
							l13.26,0.12c1.72,0.02,3.41,0.6,4.7,1.73c1.14,0.99,2.09,2.5,1.9,4.7c-0.44,5.04-3.12,7.27-3.13,8.33
							c-0.01,1.06,1.43,2.93,0.34,5.98c-1.09,3.04-1.75,2.77-1.76,4.23c-0.01,1.46-0.31,5.17-1.26,7.42s-2.02,3.3-2.02,3.3
							s0.51,4.87-1,7.56c-1.98,3.53-10.76,5.81-14.35,4.12c-1.68-0.79-9.56-2.74-13.26-3.7
							C428.73,237.22,418.26,233.54,414.66,235.24z"/>
					</g>
				</g>
			</g>
			<g class="st6">
				<g>
					<g>
						<path d="M414.66,235.24l1.12-35.3c0,0,7.88-1.46,14.98-12.08c4.7-7.03,3.06-14.54,3.98-17.63c0.56-1.89,5.03-1.47,6.99-1.23
							c1.86,0.23,4.92,1.29,6.18,4.24c2.34,5.47-1.12,18.47-1.12,18.47s-1.48,2.64,2.23,2.68l13.26,0.12
							c1.72,0.02,3.41,0.6,4.7,1.73c1.14,0.99,2.09,2.5,1.9,4.7c-0.44,5.04-3.12,7.27-3.13,8.33c-0.01,1.06,1.43,2.93,0.34,5.98
							c-1.09,3.04-1.75,2.77-1.76,4.23c-0.01,1.46-0.31,5.17-1.26,7.42s-2.02,3.3-2.02,3.3s0.51,4.87-1,7.56
							c-1.98,3.53-10.76,5.81-14.35,4.12c-1.68-0.79-9.56-2.74-13.26-3.7C428.73,237.22,418.26,233.54,414.66,235.24z"/>
					</g>
				</g>
			</g>
			<g>
				<g>
					<g>
						<path class="st11" d="M409.91,235.59l0.32-35.71c0,0,7.88-1.46,14.98-12.08c4.7-7.03,6.84-12.72,7.76-15.82
							c0.56-1.89,2.39-3.16,4.35-2.91c1.86,0.23,4.08,0.98,5.35,3.93c2.34,5.47-1.43,18.66-1.43,18.66s-1.48,2.64,2.23,2.68
							l13.26,0.12c1.72,0.02,3.41,0.6,4.7,1.73c1.14,0.99,2.09,2.5,1.9,4.7c-0.44,5.04-3.12,7.27-3.13,8.34
							c-0.01,1.06,1.43,2.93,0.34,5.98c-1.09,3.04-1.75,2.77-1.76,4.23c-0.01,1.46-0.31,5.17-1.26,7.42
							c-0.95,2.25-2.02,3.3-2.02,3.3s0.36,4.78-1,7.56c-1.35,2.78-6.94,4.19-8.8,4.17c-1.86-0.02-15.11-2.79-18.82-3.75
							C423.17,237.17,413.51,233.9,409.91,235.59z"/>
					</g>
				</g>
			</g>
			<g>
				<g>
					<g>
						<g>
							<path class="st11" d="M448.09,184.6c0.1,0.09-1.2,1.71-3.03,3.5c-1.83,1.8-3.47,3.07-3.56,2.96
								c-0.09-0.11,1.4-1.53,3.21-3.32C446.53,185.97,447.99,184.51,448.09,184.6z"/>
						</g>
					</g>
				</g>
			</g>
			<g>
				<g>
					<g>
						<g>
							<path class="st11" d="M448.85,179.84c0.11,0.09-1.08,1.59-2.88,3.09c-1.79,1.49-3.29,2.61-3.37,2.52
								c-0.1-0.11,1.27-1.42,3.05-2.9C447.42,181.07,448.74,179.74,448.85,179.84z"/>
						</g>
					</g>
				</g>
			</g>
			<g>
				<g>
					<g>
						<g>
							<path class="st11" d="M448.52,175.53c0.1,0.07-0.82,1.37-2.38,2.49c-1.55,1.08-2.75,1.99-2.85,1.9c-0.1-0.1,1-1.22,2.55-2.3
								C447.36,176.53,448.41,175.42,448.52,175.53z"/>
						</g>
					</g>
				</g>
			</g>
			<g>
				<g>
					<g>
						<g>
							<path class="st11" d="M447.1,171.92c0.09,0.1-0.7,0.91-1.76,1.8c-1.06,0.89-1.99,1.53-2.08,1.42c-0.09-0.1,0.7-0.91,1.76-1.8
								C446.08,172.45,447.01,171.82,447.1,171.92z"/>
						</g>
					</g>
				</g>
			</g>
			<g>
				<g>
					<g>
						<g>
							<path class="st11" d="M444.42,169.78c0.07,0.12-0.43,0.57-1.11,1.01c-0.68,0.44-1.3,0.71-1.38,0.6
								c-0.08-0.11,0.42-0.56,1.11-1.01C443.74,169.93,444.35,169.66,444.42,169.78z"/>
						</g>
					</g>
				</g>
			</g>
			<g>
				<g>
					<g>
						<g>
							<path class="st11" d="M447,190.89c0.09,0.1-0.75,0.96-1.87,1.9c-1.12,0.95-2.11,1.63-2.19,1.52c-0.09-0.1,0.75-0.96,1.87-1.9
								C445.93,191.46,446.91,190.78,447,190.89z"/>
						</g>
					</g>
				</g>
			</g>
			<g>
				<g>
					<g>
						<g>
							<path class="st11" d="M468.46,203.53c0.08,0.11-1.69,1.44-3.95,2.95c-2.26,1.52-4.15,2.65-4.22,2.54
								c-0.08-0.11,1.69-1.43,3.95-2.95C466.5,204.55,468.39,203.42,468.46,203.53z"/>
						</g>
					</g>
				</g>
			</g>
			<g>
				<g>
					<g>
						<g>
							<path class="st11" d="M468.31,197.48c0.08,0.11-0.95,0.94-2.29,1.85c-1.34,0.91-2.5,1.55-2.57,1.44
								c-0.08-0.11,0.95-0.94,2.3-1.85C467.08,198.01,468.23,197.36,468.31,197.48z"/>
						</g>
					</g>
				</g>
			</g>
			<g>
				<g>
					<g>
						<g>
							<path class="st11" d="M466.36,212.18c0.07,0.12-1.31,0.98-2.97,2.09c-1.66,1.11-2.98,2.05-3.07,1.94
								c-0.09-0.1,1.11-1.23,2.79-2.36C464.79,212.73,466.3,212.06,466.36,212.18z"/>
						</g>
					</g>
				</g>
			</g>
			<g>
				<g>
					<g>
						<g>
							<path class="st11" d="M464.36,219.04c0.08,0.11-1.15,1.16-2.75,2.33c-1.6,1.18-2.97,2.05-3.05,1.93
								c-0.08-0.11,1.15-1.16,2.75-2.33C462.92,219.8,464.28,218.93,464.36,219.04z"/>
						</g>
					</g>
				</g>
			</g>
			<g>
				<g>
					<g>
						<g>
							<path class="st11" d="M462.74,227.16c0.09,0.1-1.27,1.42-3.18,2.76c-1.9,1.34-3.6,2.18-3.67,2.07
								c-0.07-0.12,1.5-1.14,3.38-2.47C461.16,228.19,462.65,227.06,462.74,227.16z"/>
						</g>
					</g>
				</g>
			</g>
			<g>
				<g>
					<g>
						<g>
							<path class="st11" d="M460.98,234c0.09,0.11-1.53,1.61-3.75,3.16c-2.21,1.57-4.17,2.59-4.24,2.47
								c-0.07-0.12,1.76-1.32,3.95-2.87C459.14,235.21,460.89,233.89,460.98,234z"/>
						</g>
					</g>
				</g>
			</g>
		</g>
	</g>
	<g>
		<g>
			<g>
				<g>
					<g>
						
							<rect x="439.57" y="118.34" transform="matrix(0.1954 -0.9807 0.9807 0.1954 243.3751 543.0767)" class="st11" width="26.18" height="9.74"/>
					</g>
				</g>
			</g>
			<g>
				<g>
					<g>
						
							<rect x="442.15" y="118.86" transform="matrix(0.1954 -0.9807 0.9807 0.1954 244.9455 546.0207)" class="st11" width="26.18" height="9.74"/>
					</g>
				</g>
			</g>
			<g>
				<g>
					<g>
						<path class="st2" d="M452.02,129.97c0.24-1.19,1.39-1.96,2.59-1.73c1.19,0.24,1.96,1.39,1.73,2.59
							c-0.24,1.19-1.39,1.96-2.59,1.73C452.55,132.32,451.78,131.16,452.02,129.97z"/>
					</g>
				</g>
			</g>
			<g>
				<g>
					<g>
						<g>
							<path class="st11" d="M446.11,131.24c-0.06-0.06,0.63-0.83,1.54-1.71c0.91-0.88,1.71-1.54,1.77-1.48
								c0.06,0.06-0.63,0.83-1.54,1.71C446.97,130.64,446.18,131.31,446.11,131.24z"/>
						</g>
					</g>
				</g>
			</g>
			<g>
				<g>
					<g>
						<g>
							<path class="st11" d="M446.68,128.4c-0.06-0.06,0.63-0.83,1.54-1.71c0.91-0.88,1.71-1.54,1.77-1.48
								c0.06,0.06-0.63,0.83-1.54,1.71C447.53,127.8,446.74,128.47,446.68,128.4z"/>
						</g>
					</g>
				</g>
			</g>
			<g>
				<g>
					<g>
						<g>
							<path class="st11" d="M447.25,125.56c-0.06-0.06,0.63-0.83,1.54-1.71c0.91-0.88,1.71-1.54,1.77-1.48
								c0.06,0.06-0.63,0.83-1.54,1.71C448.1,124.96,447.31,125.62,447.25,125.56z"/>
						</g>
					</g>
				</g>
			</g>
			<g>
				<g>
					<g>
						<g>
							<path class="st11" d="M447.81,122.72c-0.06-0.06,0.63-0.83,1.54-1.71c0.91-0.88,1.71-1.54,1.77-1.48
								c0.06,0.06-0.63,0.83-1.54,1.71C448.67,122.12,447.87,122.78,447.81,122.72z"/>
						</g>
					</g>
				</g>
			</g>
			<g>
				<g>
					<g>
						<g>
							<path class="st11" d="M448.38,119.88c-0.06-0.06,0.63-0.83,1.54-1.71c0.91-0.88,1.71-1.54,1.77-1.48
								c0.06,0.06-0.63,0.83-1.54,1.71C449.23,119.28,448.44,119.94,448.38,119.88z"/>
						</g>
					</g>
				</g>
			</g>
			<g>
				<g>
					<g>
						<g>
							<path class="st11" d="M448.94,117.04c-0.06-0.06,0.63-0.83,1.54-1.71c0.91-0.88,1.71-1.54,1.77-1.48
								c0.06,0.06-0.63,0.83-1.54,1.71C449.8,116.44,449.01,117.1,448.94,117.04z"/>
						</g>
					</g>
				</g>
			</g>
			<g>
				<g>
					<g>
						<g>
							<path class="st11" d="M449.51,114.2c-0.06-0.06,0.63-0.83,1.54-1.71c0.91-0.88,1.71-1.54,1.77-1.48
								c0.06,0.06-0.63,0.83-1.54,1.71C450.36,113.6,449.57,114.26,449.51,114.2z"/>
						</g>
					</g>
				</g>
			</g>
			<g>
				<g>
					<g>
						<g>
							<path class="st11" d="M445.64,133.75c-0.06-0.06,0.63-0.83,1.54-1.71c0.91-0.88,1.71-1.54,1.77-1.48
								c0.06,0.06-0.63,0.83-1.54,1.71C446.49,133.15,445.7,133.82,445.64,133.75z"/>
						</g>
					</g>
				</g>
			</g>
			<g>
				<g>
					<g>
						<g>
							<path class="st11" d="M446.34,135.3c-0.06-0.06,0.33-0.54,0.87-1.06c0.54-0.52,1.03-0.89,1.09-0.83
								c0.06,0.06-0.33,0.54-0.87,1.06C446.9,135,446.41,135.37,446.34,135.3z"/>
						</g>
					</g>
				</g>
			</g>
		</g>
		<g>
			<g>
				<g>
					<g>
						<path class="st11" d="M445.22,110.48l-5.04,22.58c0,0-5.25-0.03-11.12,5.94c-3.88,3.95-3.74,8.98-4.71,10.86
							c-0.59,1.15-3.42,0.33-4.65-0.07c-1.17-0.38-3.01-1.43-3.46-3.49c-0.84-3.81,2.98-11.76,2.98-11.76s1.28-1.52-1.11-1.99
							l-8.52-1.7c-1.1-0.22-2.12-0.8-2.81-1.69c-0.61-0.78-1.04-1.86-0.65-3.26c0.9-3.19,2.9-4.3,3.03-4.98
							c0.14-0.68-0.56-2.06,0.51-3.89c1.07-1.83,1.47-1.57,1.65-2.51c0.19-0.94,0.83-3.29,1.72-4.62c0.89-1.33,1.7-1.88,1.7-1.88
							s0.26-3.19,1.57-4.74c1.71-2.03,7.63-2.42,9.74-0.9c0.99,0.71,5.82,2.93,8.09,4.01C436.41,107.48,442.69,111.13,445.22,110.48
							z"/>
					</g>
				</g>
			</g>
			<g>
				<g>
					<g>
						<path class="st11" d="M448.32,110.83l-4.57,22.94c0,0-5.25-0.03-11.12,5.94c-3.88,3.95-5.96,7.35-6.93,9.23
							c-0.59,1.15-1.92,1.74-3.16,1.34c-1.17-0.38-2.51-1.13-2.96-3.18c-0.84-3.81,3.2-11.84,3.2-11.84s1.28-1.52-1.11-1.99
							l-8.52-1.7c-1.1-0.22-2.12-0.8-2.81-1.69c-0.61-0.78-1.04-1.86-0.65-3.26c0.9-3.19,2.9-4.3,3.03-4.98
							c0.14-0.68-0.56-2.06,0.51-3.89c1.07-1.83,1.47-1.57,1.65-2.51c0.19-0.94,0.83-3.29,1.72-4.62c0.89-1.33,1.7-1.88,1.7-1.88
							s0.36-3.12,1.57-4.74c1.21-1.62,4.98-1.85,6.17-1.61c1.19,0.24,9.38,3.64,11.65,4.72
							C439.98,108.19,445.79,111.48,448.32,110.83z"/>
					</g>
				</g>
			</g>
			<g>
				<g>
					<g>
						<g>
							<path class="st11" d="M417.51,138.98c-0.05-0.07,0.98-0.96,2.38-1.89c1.4-0.93,2.61-1.55,2.65-1.47
								c0.05,0.08-1.09,0.82-2.47,1.74C418.68,138.29,417.57,139.06,417.51,138.98z"/>
						</g>
					</g>
				</g>
			</g>
			<g>
				<g>
					<g>
						<g>
							<path class="st11" d="M416.44,141.96c-0.06-0.07,0.89-0.89,2.23-1.64c1.33-0.74,2.44-1.28,2.48-1.21
								c0.05,0.08-0.99,0.76-2.32,1.49C417.51,141.34,416.5,142.03,416.44,141.96z"/>
						</g>
					</g>
				</g>
			</g>
			<g>
				<g>
					<g>
						<g>
							<path class="st11" d="M416.12,144.77c-0.05-0.06,0.69-0.78,1.84-1.31c1.13-0.51,2.02-0.95,2.07-0.87
								c0.05,0.08-0.79,0.66-1.92,1.17C417,144.27,416.18,144.85,416.12,144.77z"/>
						</g>
					</g>
				</g>
			</g>
			<g>
				<g>
					<g>
						<g>
							<path class="st11" d="M416.6,147.27c-0.04-0.08,0.56-0.5,1.36-0.95c0.79-0.44,1.47-0.74,1.51-0.66
								c0.04,0.08-0.56,0.5-1.36,0.95C417.32,147.05,416.64,147.35,416.6,147.27z"/>
						</g>
					</g>
				</g>
			</g>
			<g>
				<g>
					<g>
						<g>
							<path class="st11" d="M418.06,148.98c-0.03-0.08,0.34-0.32,0.84-0.52c0.49-0.2,0.92-0.3,0.96-0.22
								c0.04,0.08-0.34,0.31-0.84,0.52C418.52,148.96,418.09,149.06,418.06,148.98z"/>
						</g>
					</g>
				</g>
			</g>
			<g>
				<g>
					<g>
						<g>
							<path class="st11" d="M418.98,135.07c-0.04-0.08,0.6-0.52,1.44-0.99c0.84-0.47,1.55-0.79,1.6-0.71s-0.6,0.52-1.44,0.99
								C419.74,134.83,419.03,135.15,418.98,135.07z"/>
						</g>
					</g>
				</g>
			</g>
			<g>
				<g>
					<g>
						<g>
							<path class="st11" d="M406.71,124.31c-0.04-0.08,1.26-0.72,2.9-1.42c1.64-0.7,2.99-1.2,3.03-1.12
								c0.04,0.08-1.26,0.72-2.9,1.42C408.1,123.89,406.75,124.39,406.71,124.31z"/>
						</g>
					</g>
				</g>
			</g>
			<g>
				<g>
					<g>
						<g>
							<path class="st11" d="M406.07,128.23c-0.04-0.08,0.73-0.49,1.7-0.91c0.98-0.42,1.8-0.69,1.83-0.61
								c0.04,0.08-0.73,0.49-1.7,0.91C406.93,128.04,406.11,128.31,406.07,128.23z"/>
						</g>
					</g>
				</g>
			</g>
			<g>
				<g>
					<g>
						<g>
							<path class="st11" d="M409.12,119c-0.03-0.09,0.96-0.47,2.17-0.98c1.2-0.51,2.17-0.96,2.21-0.88
								c0.04,0.08-0.86,0.66-2.08,1.18C410.2,118.84,409.15,119.09,409.12,119z"/>
						</g>
					</g>
				</g>
			</g>
			<g>
				<g>
					<g>
						<g>
							<path class="st11" d="M411.25,114.83c-0.04-0.08,0.88-0.6,2.06-1.17c1.17-0.56,2.16-0.95,2.2-0.87
								c0.04,0.08-0.88,0.6-2.06,1.17C412.27,114.52,411.29,114.91,411.25,114.83z"/>
						</g>
					</g>
				</g>
			</g>
			<g>
				<g>
					<g>
						<g>
							<path class="st11" d="M413.28,109.8c-0.04-0.07,0.99-0.76,2.39-1.39c1.39-0.63,2.59-0.96,2.61-0.88
								c0.03,0.09-1.11,0.55-2.48,1.18C414.43,109.33,413.33,109.88,413.28,109.8z"/>
						</g>
					</g>
				</g>
			</g>
			<g>
				<g>
					<g>
						<g>
							<path class="st11" d="M415.25,105.62c-0.05-0.08,1.18-0.85,2.8-1.57c1.62-0.74,3-1.16,3.03-1.07
								c0.03,0.08-1.29,0.63-2.9,1.37C416.58,105.06,415.3,105.69,415.25,105.62z"/>
						</g>
					</g>
				</g>
			</g>
		</g>
	</g>
</g>
</svg>
