<?xml version="1.0" encoding="UTF-8"?>
<svg xmlns="http://www.w3.org/2000/svg" xmlns:xlink="http://www.w3.org/1999/xlink" width="375pt" height="374.999991pt" viewBox="0 0 375 374.999991" version="1.2">
<defs>
<clipPath id="clip1">
  <path d="M 0 0 L 188.078125 0 L 188.078125 375 L 0 375 Z M 0 0 "/>
</clipPath>
<clipPath id="clip2">
  <path d="M 188.042969 1.382812 L 375 1.382812 L 375 374.882812 L 188.042969 374.882812 Z M 188.042969 1.382812 "/>
</clipPath>
</defs>
<g id="surface1">
<g clip-path="url(#clip1)" clip-rule="nonzero">
<path style=" stroke:none;fill-rule:nonzero;fill:rgb(0%,91.369629%,48.239136%);fill-opacity:1;" d="M 339.53125 382.9375 L 206.164062 96.890625 L 244.476562 14.726562 L 212.925781 0 L 186.953125 55.722656 L 160.976562 0 L 129.425781 14.71875 L 167.742188 96.886719 L 34.375 382.929688 L -21.921875 382.929688 L -21.921875 417.75 L 395.828125 417.75 L 395.828125 382.9375 Z M 130.414062 382.9375 L 186.953125 261.667969 L 243.519531 382.9375 Z M 130.414062 382.9375 "/>
</g>
<g clip-path="url(#clip2)" clip-rule="nonzero">
<path style=" stroke:none;fill-rule:nonzero;fill:rgb(91.369629%,0%,43.139648%);fill-opacity:1;" d="M 338.597656 376.066406 L 208.105469 96.1875 L 245.59375 15.789062 L 214.722656 1.382812 L 189.308594 55.90625 L 163.894531 1.382812 L 133.023438 15.785156 L 170.511719 96.183594 L 40.015625 376.0625 L -15.066406 376.0625 L -15.066406 410.132812 L 393.683594 410.132812 L 393.683594 376.066406 Z M 133.988281 376.066406 L 189.308594 257.414062 L 244.65625 376.066406 Z M 133.988281 376.066406 "/>
</g>
</g>
</svg>
